{"glyphs":{"0":{"ha":646,"x_min":-26,"x_max":674,"o":"m 151 0 q 26 34 71 0 q -22 118 -18 68 q -14 226 -26 168 l 92 624 q 190 786 118 721 q 379 851 261 851 l 493 851 q 594 832 554 851 q 651 781 635 813 q 670 708 667 749 q 660 624 674 667 l 553 226 q 455 65 526 131 q 265 0 383 0 l 151 0 m 213 226 q 210 211 211 221 q 219 186 208 201 q 254 171 229 171 q 297 185 279 171 q 321 213 315 199 l 326 226 l 432 624 q 433 630 432 626 q 433 643 433 633 q 430 660 433 653 q 416 674 426 668 q 390 681 406 681 q 348 667 365 681 q 325 639 331 653 l 319 624 l 213 226 z "},"1":{"ha":557,"x_min":126,"x_max":628,"o":"m 174 0 l 325 567 l 126 567 l 372 851 l 628 851 l 400 0 l 174 0 z "},"2":{"ha":613,"x_min":-76,"x_max":642,"o":"m -8 254 q 90 417 18 351 q 279 482 161 482 l 308 482 q 351 497 333 482 q 374 525 368 511 l 379 539 l 407 638 q 409 649 408 642 q 402 669 410 657 q 375 681 394 681 q 343 669 357 681 q 325 647 329 658 l 321 638 l 303 567 l 75 567 l 90 624 q 188 786 117 721 q 378 851 260 851 l 464 851 q 589 817 544 851 q 638 733 633 783 q 629 624 642 683 l 599 511 q 501 349 572 414 q 311 283 429 283 l 283 283 q 240 269 258 283 q 217 242 222 256 l 211 226 l 196 171 l 479 171 l 433 0 l -76 0 l -8 254 z "},"3":{"ha":638,"x_min":-33,"x_max":667,"o":"m 144 0 q 19 34 64 0 q -29 118 -25 68 q -21 226 -33 168 l -14 256 l 213 256 l 206 226 q 203 211 204 221 q 212 186 201 201 q 247 171 222 171 q 290 185 272 171 q 314 213 308 199 l 319 226 l 335 283 q 335 290 335 286 q 336 303 336 293 q 333 320 336 313 q 319 334 329 328 q 293 340 308 340 l 179 340 l 225 511 l 339 511 q 381 525 364 511 q 404 553 399 539 l 410 567 l 425 624 q 426 630 425 626 q 426 643 426 633 q 423 660 426 653 q 409 674 419 668 q 383 681 399 681 q 341 667 358 681 q 318 639 324 653 l 313 624 l 304 596 l 78 596 l 85 624 q 183 786 111 721 q 372 851 254 851 l 486 851 q 588 832 547 851 q 644 781 628 813 q 663 708 660 749 q 653 624 667 667 l 638 567 q 560 425 614 481 q 561 283 583 367 l 546 226 q 448 65 519 131 q 258 0 376 0 l 144 0 z "},"4":{"ha":603,"x_min":-46,"x_max":675,"o":"m 219 0 l 265 171 l -46 171 l -1 340 l 419 851 l 675 851 l 447 0 l 219 0 m 254 340 l 311 340 l 339 443 l 254 340 z "},"5":{"ha":643,"x_min":-26,"x_max":692,"o":"m 151 0 q 26 34 71 0 q -22 118 -18 68 q -14 226 -26 168 l -7 256 l 221 256 l 213 226 q 210 211 211 221 q 219 186 208 201 q 254 171 229 171 q 297 185 279 171 q 321 213 315 199 l 326 226 l 349 313 q 351 328 350 318 q 343 353 353 338 q 308 369 333 369 l 24 369 l 153 851 l 692 851 l 646 681 l 335 681 l 304 567 l 417 567 q 572 502 535 567 q 583 340 610 438 l 553 226 q 455 65 526 131 q 265 0 383 0 l 151 0 z "},"6":{"ha":642,"x_min":-26,"x_max":643,"o":"m 151 0 q 26 34 71 0 q -22 118 -18 68 q -14 226 -26 168 l 92 624 q 190 786 118 721 q 379 851 261 851 l 465 851 q 590 817 546 851 q 639 733 635 783 q 631 624 643 683 l 624 596 l 396 596 l 408 638 q 410 649 410 642 q 403 669 411 657 q 376 681 396 681 q 344 669 358 681 q 326 647 331 658 l 322 638 l 296 539 l 410 539 q 535 505 490 539 q 583 421 579 471 q 575 311 588 371 l 553 226 q 455 65 526 131 q 265 0 383 0 l 151 0 m 213 226 q 210 211 211 221 q 219 186 208 201 q 254 171 229 171 q 297 185 279 171 q 321 213 315 199 l 326 226 l 342 283 q 342 290 342 286 q 343 303 343 293 q 340 320 343 313 q 326 334 336 328 q 300 340 315 340 l 243 340 l 213 226 z "},"7":{"ha":504,"x_min":-86,"x_max":596,"o":"m -86 0 l 324 681 l 96 681 l 142 851 l 596 851 l 550 681 l 140 0 l -86 0 z "},"8":{"ha":668,"x_min":-29,"x_max":671,"o":"m 149 0 q 24 34 68 0 q -25 118 -21 68 q -17 226 -29 168 l 6 311 q 93 464 32 407 q 103 567 88 510 l 118 624 q 216 786 144 721 q 406 851 288 851 l 490 851 q 592 832 551 851 q 648 781 632 813 q 667 708 664 749 q 657 624 671 667 l 642 567 q 596 464 626 510 q 601 311 625 406 l 578 226 q 481 65 553 131 q 290 0 408 0 l 149 0 m 210 226 q 208 213 211 225 q 219 185 206 200 q 265 171 233 171 q 319 185 297 171 q 346 213 340 199 l 351 226 l 367 283 q 368 298 365 286 q 356 324 371 310 q 311 340 342 339 q 258 325 279 339 q 231 297 236 311 l 225 283 l 210 226 m 336 594 q 364 540 324 549 q 399 558 385 544 q 418 583 414 571 l 422 594 l 433 638 q 435 649 435 642 q 428 669 436 657 q 403 681 421 681 q 370 669 383 681 q 353 647 357 658 l 349 638 l 336 594 z "},"9":{"ha":643,"x_min":-29,"x_max":671,"o":"m 149 0 q 24 34 68 0 q -25 118 -21 68 q -17 226 -29 168 l -10 256 l 217 256 l 210 226 q 209 220 210 224 q 208 207 208 217 q 212 190 208 197 q 226 176 215 182 q 251 169 236 169 q 294 183 276 169 q 318 211 313 197 l 324 226 l 346 313 l 232 313 q 107 347 151 313 q 58 431 63 381 q 67 539 54 481 l 89 624 q 187 786 115 721 q 376 851 258 851 l 490 851 q 592 832 551 851 q 648 781 632 813 q 667 708 664 749 q 657 624 671 667 l 550 226 q 452 65 524 131 q 263 0 381 0 l 149 0 m 301 567 q 299 551 300 561 q 308 526 297 542 q 343 511 318 511 l 399 511 l 429 624 q 430 630 429 626 q 431 643 431 633 q 427 660 431 653 q 413 674 424 668 q 388 681 403 681 q 345 667 363 681 q 322 639 328 653 l 317 624 l 301 567 z "},"¤":{"ha":732,"x_min":-44,"x_max":808,"o":"m -44 0 l 215 972 l 808 972 l 549 0 l -44 0 m 3 68 l 365 486 l 226 903 l 3 68 m 4 29 l 518 29 l 375 457 l 4 29 m 247 944 l 389 515 l 763 944 l 247 944 m 400 486 l 538 65 l 764 906 l 400 486 z "},"¦":{"ha":732,"x_min":-44,"x_max":808,"o":"m -44 0 l 215 972 l 808 972 l 549 0 l -44 0 m 3 68 l 365 486 l 226 903 l 3 68 m 4 29 l 518 29 l 375 457 l 4 29 m 247 944 l 389 515 l 763 944 l 247 944 m 400 486 l 538 65 l 764 906 l 400 486 z "},"¨":{"ha":732,"x_min":-44,"x_max":808,"o":"m -44 0 l 215 972 l 808 972 l 549 0 l -44 0 m 3 68 l 365 486 l 226 903 l 3 68 m 4 29 l 518 29 l 375 457 l 4 29 m 247 944 l 389 515 l 763 944 l 247 944 m 400 486 l 538 65 l 764 906 l 400 486 z "},"¬":{"ha":732,"x_min":-44,"x_max":808,"o":"m -44 0 l 215 972 l 808 972 l 549 0 l -44 0 m 3 68 l 365 486 l 226 903 l 3 68 m 4 29 l 518 29 l 375 457 l 4 29 m 247 944 l 389 515 l 763 944 l 247 944 m 400 486 l 538 65 l 764 906 l 400 486 z "},"¯":{"ha":732,"x_min":-44,"x_max":808,"o":"m -44 0 l 215 972 l 808 972 l 549 0 l -44 0 m 3 68 l 365 486 l 226 903 l 3 68 m 4 29 l 518 29 l 375 457 l 4 29 m 247 944 l 389 515 l 763 944 l 247 944 m 400 486 l 538 65 l 764 906 l 400 486 z "},"±":{"ha":732,"x_min":-44,"x_max":808,"o":"m -44 0 l 215 972 l 808 972 l 549 0 l -44 0 m 3 68 l 365 486 l 226 903 l 3 68 m 4 29 l 518 29 l 375 457 l 4 29 m 247 944 l 389 515 l 763 944 l 247 944 m 400 486 l 538 65 l 764 906 l 400 486 z "},"´":{"ha":732,"x_min":-44,"x_max":808,"o":"m -44 0 l 215 972 l 808 972 l 549 0 l -44 0 m 3 68 l 365 486 l 226 903 l 3 68 m 4 29 l 518 29 l 375 457 l 4 29 m 247 944 l 389 515 l 763 944 l 247 944 m 400 486 l 538 65 l 764 906 l 400 486 z "},"µ":{"ha":732,"x_min":-44,"x_max":808,"o":"m -44 0 l 215 972 l 808 972 l 549 0 l -44 0 m 3 68 l 365 486 l 226 903 l 3 68 m 4 29 l 518 29 l 375 457 l 4 29 m 247 944 l 389 515 l 763 944 l 247 944 m 400 486 l 538 65 l 764 906 l 400 486 z "},"¶":{"ha":732,"x_min":-44,"x_max":808,"o":"m -44 0 l 215 972 l 808 972 l 549 0 l -44 0 m 3 68 l 365 486 l 226 903 l 3 68 m 4 29 l 518 29 l 375 457 l 4 29 m 247 944 l 389 515 l 763 944 l 247 944 m 400 486 l 538 65 l 764 906 l 400 486 z "},"¸":{"ha":732,"x_min":-44,"x_max":808,"o":"m -44 0 l 215 972 l 808 972 l 549 0 l -44 0 m 3 68 l 365 486 l 226 903 l 3 68 m 4 29 l 518 29 l 375 457 l 4 29 m 247 944 l 389 515 l 763 944 l 247 944 m 400 486 l 538 65 l 764 906 l 400 486 z "},"―":{"ha":732,"x_min":-44,"x_max":808,"o":"m -44 0 l 215 972 l 808 972 l 549 0 l -44 0 m 3 68 l 365 486 l 226 903 l 3 68 m 4 29 l 518 29 l 375 457 l 4 29 m 247 944 l 389 515 l 763 944 l 247 944 m 400 486 l 538 65 l 764 906 l 400 486 z "},"‖":{"ha":732,"x_min":-44,"x_max":808,"o":"m -44 0 l 215 972 l 808 972 l 549 0 l -44 0 m 3 68 l 365 486 l 226 903 l 3 68 m 4 29 l 518 29 l 375 457 l 4 29 m 247 944 l 389 515 l 763 944 l 247 944 m 400 486 l 538 65 l 764 906 l 400 486 z "},"‗":{"ha":732,"x_min":-44,"x_max":808,"o":"m -44 0 l 215 972 l 808 972 l 549 0 l -44 0 m 3 68 l 365 486 l 226 903 l 3 68 m 4 29 l 518 29 l 375 457 l 4 29 m 247 944 l 389 515 l 763 944 l 247 944 m 400 486 l 538 65 l 764 906 l 400 486 z "},"‛":{"ha":732,"x_min":-44,"x_max":808,"o":"m -44 0 l 215 972 l 808 972 l 549 0 l -44 0 m 3 68 l 365 486 l 226 903 l 3 68 m 4 29 l 518 29 l 375 457 l 4 29 m 247 944 l 389 515 l 763 944 l 247 944 m 400 486 l 538 65 l 764 906 l 400 486 z "},"‟":{"ha":732,"x_min":-44,"x_max":808,"o":"m -44 0 l 215 972 l 808 972 l 549 0 l -44 0 m 3 68 l 365 486 l 226 903 l 3 68 m 4 29 l 518 29 l 375 457 l 4 29 m 247 944 l 389 515 l 763 944 l 247 944 m 400 486 l 538 65 l 764 906 l 400 486 z "},"‡":{"ha":732,"x_min":-44,"x_max":808,"o":"m -44 0 l 215 972 l 808 972 l 549 0 l -44 0 m 3 68 l 365 486 l 226 903 l 3 68 m 4 29 l 518 29 l 375 457 l 4 29 m 247 944 l 389 515 l 763 944 l 247 944 m 400 486 l 538 65 l 764 906 l 400 486 z "},"‣":{"ha":732,"x_min":-44,"x_max":808,"o":"m -44 0 l 215 972 l 808 972 l 549 0 l -44 0 m 3 68 l 365 486 l 226 903 l 3 68 m 4 29 l 518 29 l 375 457 l 4 29 m 247 944 l 389 515 l 763 944 l 247 944 m 400 486 l 538 65 l 764 906 l 400 486 z "},"․":{"ha":732,"x_min":-44,"x_max":808,"o":"m -44 0 l 215 972 l 808 972 l 549 0 l -44 0 m 3 68 l 365 486 l 226 903 l 3 68 m 4 29 l 518 29 l 375 457 l 4 29 m 247 944 l 389 515 l 763 944 l 247 944 m 400 486 l 538 65 l 764 906 l 400 486 z "},"‥":{"ha":732,"x_min":-44,"x_max":808,"o":"m -44 0 l 215 972 l 808 972 l 549 0 l -44 0 m 3 68 l 365 486 l 226 903 l 3 68 m 4 29 l 518 29 l 375 457 l 4 29 m 247 944 l 389 515 l 763 944 l 247 944 m 400 486 l 538 65 l 764 906 l 400 486 z "}," ":{"ha":368,"x_min":0,"x_max":0,"o":""},"!":{"ha":308,"x_min":-74,"x_max":381,"o":"m 3 283 l 154 851 l 381 851 l 229 283 l 3 283 m -74 0 l -12 226 l 214 226 l 153 0 l -74 0 z "},"\"":{"ha":464,"x_min":56,"x_max":544,"o":"m 283 510 l 374 850 l 544 850 l 453 510 l 283 510 m 56 510 l 147 850 l 317 850 l 226 510 l 56 510 z "},"#":{"ha":928,"x_min":-85,"x_max":1019,"o":"m -85 0 l 40 199 l -44 199 l 63 368 l 147 368 l 219 482 l 135 482 l 242 653 l 326 653 l 453 851 l 679 851 l 554 653 l 667 653 l 793 851 l 1019 851 l 894 653 l 979 653 l 872 482 l 786 482 l 715 368 l 800 368 l 693 199 l 607 199 l 482 0 l 256 0 l 381 199 l 267 199 l 142 0 l -85 0 m 375 368 l 488 368 l 560 482 l 446 482 l 375 368 z "},"$":{"ha":639,"x_min":-40,"x_max":653,"o":"m 122 6 q -9 77 22 14 q -17 231 -40 140 l -1 288 l 226 288 l 211 231 q 208 215 210 225 q 217 190 207 206 q 253 175 228 175 q 296 189 278 175 q 319 217 314 203 l 325 231 l 339 288 q 342 303 340 294 q 333 328 343 313 q 299 344 324 344 l 242 344 q 86 410 124 344 q 75 571 49 475 l 90 628 q 175 777 114 714 q 333 853 236 840 l 358 946 l 528 946 l 504 853 q 625 778 597 842 q 629 628 653 715 l 621 599 l 394 599 l 406 642 q 408 653 407 646 q 401 673 408 661 q 375 685 394 685 q 342 674 356 685 q 325 653 329 664 l 321 642 l 310 599 q 307 583 308 593 q 316 558 306 574 q 351 543 326 543 l 408 543 q 533 509 489 543 q 582 425 578 475 q 574 315 586 375 l 551 231 q 462 77 526 140 q 292 6 397 14 l 267 -89 l 97 -89 l 122 6 z "},"%":{"ha":1221,"x_min":138,"x_max":1083,"o":"m 226 0 l 767 851 l 994 851 l 454 0 l 226 0 m 157 681 q 231 803 176 754 q 372 851 285 851 l 458 851 q 574 803 547 851 q 582 681 601 754 q 509 560 563 608 q 367 511 456 511 l 282 511 q 165 560 193 511 q 157 681 138 608 m 328 681 q 326 670 326 681 q 333 649 325 660 q 358 639 340 639 q 390 649 376 639 q 408 669 404 660 q 413 682 413 679 q 415 693 414 686 q 408 712 415 700 q 381 724 400 724 q 349 713 363 724 q 332 694 336 703 q 328 681 328 685 m 647 49 q 633 74 647 49 q 639 171 619 99 q 712 292 658 243 q 854 340 765 340 l 939 340 q 1056 292 1028 340 q 1064 171 1083 243 q 991 49 1044 99 q 849 0 938 0 l 763 0 q 647 49 675 0 m 808 171 l 808 169 q 808 165 808 167 q 807 159 807 163 q 808 152 807 156 q 809 145 808 149 q 813 139 810 142 q 819 133 815 136 q 828 129 822 131 q 840 128 833 128 q 854 130 847 128 q 866 135 861 132 q 875 141 871 138 q 882 148 879 144 q 888 156 885 151 q 892 163 890 160 q 894 168 893 165 l 894 171 q 895 181 893 172 q 889 201 897 190 q 863 213 881 213 q 842 208 851 213 q 826 198 832 204 q 816 186 819 192 q 811 175 813 181 l 808 171 z "},"&":{"ha":949,"x_min":-29,"x_max":746,"o":"m 149 0 q 24 34 68 0 q -25 118 -21 68 q -17 226 -29 168 l 6 311 q 93 464 32 407 q 103 567 88 510 l 118 624 q 216 786 144 721 q 406 851 288 851 l 490 851 q 645 786 608 851 q 657 624 682 721 l 649 596 q 461 386 593 433 l 503 328 l 639 436 l 746 290 l 610 183 l 744 0 l 432 0 l 415 25 q 290 0 356 0 l 149 0 m 210 226 q 208 213 211 225 q 219 185 206 200 q 265 171 233 171 q 304 178 288 171 l 226 286 l 210 226 m 329 567 l 358 567 q 406 584 389 567 q 428 619 422 601 l 433 639 q 434 643 433 640 q 435 653 435 646 q 432 667 435 661 q 422 676 429 672 q 403 681 414 681 q 370 670 383 681 q 353 650 357 660 l 349 639 l 329 567 z "},"'":{"ha":315,"x_min":46,"x_max":400,"o":"m 46 488 l 68 572 l 97 572 q 114 574 104 572 q 143 590 124 575 q 169 629 163 604 q 165 669 175 654 q 142 685 154 683 l 128 686 l 172 856 l 400 856 l 369 743 q 260 561 340 635 q 46 488 179 488 z "},"(":{"ha":358,"x_min":-53,"x_max":454,"o":"m 139 -53 q -16 12 21 -53 q -28 174 -53 76 l 110 685 q 208 846 136 781 q 397 911 279 911 l 454 911 l 408 740 q 365 726 383 740 q 342 699 347 713 l 336 685 l 200 174 q 199 167 200 171 q 199 154 199 164 q 202 137 199 144 q 216 123 206 129 q 242 117 226 117 l 196 -53 l 139 -53 z "},")":{"ha":358,"x_min":-94,"x_max":413,"o":"m -50 117 q -7 131 -25 117 q 17 158 11 144 l 22 174 l 160 685 q 163 700 161 690 q 153 725 164 710 q 118 740 143 740 l 164 911 l 219 911 q 375 846 338 911 q 386 685 413 781 l 250 174 q 152 12 224 76 q -39 -53 81 -53 l -94 -53 l -50 117 z "},"*":{"ha":501,"x_min":86,"x_max":569,"o":"m 211 488 l 244 615 l 118 550 l 86 649 l 217 714 l 121 781 l 206 878 l 297 814 l 332 942 l 446 942 l 411 814 l 539 878 l 569 781 l 440 714 l 535 649 l 451 550 l 358 615 l 324 488 l 211 488 z "},"+":{"ha":513,"x_min":-7,"x_max":492,"o":"m 76 178 l 107 290 l -7 290 l 39 461 l 151 461 l 182 574 l 410 574 l 379 461 l 492 461 l 447 290 l 333 290 l 303 178 l 76 178 z "},",":{"ha":285,"x_min":-151,"x_max":201,"o":"m -151 -142 l -129 -57 l -101 -57 q -85 -56 -94 -57 q -56 -40 -75 -54 q -29 0 -36 -25 q -33 40 -22 25 q -57 56 -43 54 l -71 57 l -25 226 l 201 226 l 172 114 q 62 -68 143 6 q -151 -142 -19 -142 z "},"-":{"ha":510,"x_min":-8,"x_max":492,"o":"m -8 293 l 38 463 l 492 463 l 446 293 l -8 293 z "},".":{"ha":289,"x_min":-83,"x_max":204,"o":"m -83 0 l -22 226 l 204 226 l 143 0 l -83 0 z "},"/":{"ha":715,"x_min":-25,"x_max":742,"o":"m -25 0 l 514 851 l 742 851 l 201 0 l -25 0 z "},":":{"ha":300,"x_min":-78,"x_max":286,"o":"m -1 283 l 58 511 l 286 511 l 225 283 l -1 283 m -78 0 l -17 226 l 210 226 l 149 0 l -78 0 z "},";":{"ha":297,"x_min":-144,"x_max":285,"o":"m -144 -142 l -122 -57 l -94 -57 q -78 -56 -87 -57 q -49 -40 -68 -54 q -22 0 -29 -25 q -26 40 -15 25 q -50 56 -36 54 l -64 57 l -18 226 l 208 226 l 179 114 q 69 -68 150 6 q -144 -142 -12 -142 m -3 283 l 58 511 l 285 511 l 224 283 l -3 283 z "},"=":{"ha":521,"x_min":-33,"x_max":526,"o":"m -33 178 l 13 347 l 467 347 l 421 178 l -33 178 m 28 404 l 74 574 l 526 574 l 482 404 l 28 404 z "},"?":{"ha":740,"x_min":117,"x_max":786,"o":"m 207 340 q 292 501 233 436 q 439 567 350 567 q 458 569 449 567 q 474 575 467 571 q 486 585 481 579 q 495 595 492 590 q 502 606 499 600 q 507 615 506 611 q 510 622 508 618 l 511 625 q 512 639 508 626 q 501 666 515 651 q 454 681 486 681 q 401 667 422 681 q 374 639 379 653 l 368 624 l 142 624 q 240 786 168 721 q 429 851 311 851 l 571 851 q 745 778 704 851 q 758 596 786 704 l 750 567 q 647 394 718 449 q 492 340 575 340 q 419 283 439 340 l 193 283 l 207 340 m 117 0 l 178 226 l 404 226 l 343 0 l 117 0 z "},"@":{"ha":1044,"x_min":-50,"x_max":1097,"o":"m 81 0 q -25 44 0 0 q -32 154 -50 89 l 113 696 q 179 807 131 763 q 308 851 228 851 l 967 851 q 1072 807 1047 851 q 1079 696 1097 763 l 997 388 q 930 276 979 321 q 800 232 881 232 l 685 232 q 579 276 607 232 q 476 251 533 251 l 400 251 q 294 296 319 251 q 286 406 268 340 l 297 444 q 364 556 315 511 q 493 600 413 600 l 571 600 q 626 592 603 600 l 633 619 l 789 619 l 726 388 l 726 386 q 726 382 726 385 q 725 376 725 379 q 726 371 725 374 q 727 365 726 368 q 730 358 728 361 q 735 353 732 356 q 744 350 739 351 q 754 349 749 349 l 793 349 q 822 358 810 349 q 839 378 835 368 l 842 388 l 925 696 q 927 706 926 700 q 921 724 928 713 q 897 735 914 735 l 317 735 q 288 725 300 735 q 272 706 275 715 l 268 696 l 122 154 q 120 144 121 150 q 127 127 119 138 q 151 117 135 117 l 847 117 l 815 0 l 81 0 m 442 406 q 441 401 442 404 q 440 392 440 399 q 442 381 440 386 q 451 372 444 376 q 469 368 458 368 q 499 377 486 368 q 514 396 511 386 l 518 406 l 529 444 q 531 455 531 449 q 524 472 532 461 q 500 483 517 483 q 471 474 483 483 q 456 454 458 464 l 451 444 l 442 406 z "},"A":{"ha":653,"x_min":-114,"x_max":596,"o":"m -114 0 l 285 851 l 596 851 l 539 0 l 311 0 l 317 71 l 146 71 l 113 0 l -114 0 m 225 242 l 328 242 l 344 496 l 225 242 z "},"B":{"ha":657,"x_min":-72,"x_max":676,"o":"m -72 0 l 156 851 l 496 851 q 597 832 557 851 q 653 781 638 813 q 673 708 669 749 q 663 624 676 667 q 569 467 638 528 q 599 283 633 407 l 583 226 q 486 65 558 131 q 296 0 414 0 l -72 0 m 200 171 l 285 171 q 328 185 310 171 q 351 213 346 199 l 357 226 l 379 313 q 383 326 382 313 q 374 354 383 340 q 339 368 364 368 l 253 368 l 200 171 m 299 539 l 356 539 q 399 553 381 539 q 422 580 417 568 q 428 596 428 592 l 435 624 l 436 625 q 436 631 436 628 q 436 637 436 633 q 436 644 436 640 q 435 653 436 649 q 433 661 435 657 q 427 669 431 665 q 419 675 424 672 q 408 679 415 678 q 393 681 401 681 l 338 681 l 299 539 z "},"C":{"ha":590,"x_min":-33,"x_max":636,"o":"m 144 0 q 19 34 64 0 q -29 118 -25 68 q -21 226 -33 168 l 85 624 q 182 785 111 721 q 371 851 253 850 l 458 851 q 583 817 539 851 q 632 733 628 783 q 624 624 636 683 l 608 568 l 382 568 l 401 640 q 369 681 410 681 q 338 670 351 681 q 319 650 324 660 l 315 639 l 201 214 l 200 211 q 200 203 200 207 q 201 196 200 200 q 203 188 201 192 q 209 179 206 183 q 219 173 213 175 q 233 171 225 171 q 265 181 251 171 q 283 203 279 192 l 288 213 l 306 283 l 533 283 l 518 226 q 419 65 492 131 q 229 0 347 0 l 144 0 z "},"D":{"ha":642,"x_min":-72,"x_max":676,"o":"m -72 0 l 156 851 l 496 851 q 597 832 557 851 q 653 781 638 813 q 673 708 669 749 q 663 624 676 667 l 556 226 q 458 65 529 131 q 268 0 386 0 l -72 0 m 200 171 l 257 171 q 300 185 282 171 q 324 213 318 199 l 329 226 l 435 624 l 436 625 q 436 631 436 628 q 436 637 436 633 q 436 644 436 640 q 435 653 436 649 q 433 661 435 657 q 427 669 431 665 q 419 675 424 672 q 408 679 415 678 q 393 681 401 681 l 338 681 l 200 171 z "},"E":{"ha":507,"x_min":-72,"x_max":581,"o":"m -72 0 l 156 851 l 581 851 l 535 681 l 338 681 l 292 511 l 433 511 l 388 340 l 246 340 l 200 171 l 426 171 l 382 0 l -72 0 z "},"F":{"ha":471,"x_min":-72,"x_max":581,"o":"m -72 0 l 156 851 l 581 851 l 535 681 l 338 681 l 292 511 l 433 511 l 388 340 l 246 340 l 154 0 l -72 0 z "},"G":{"ha":631,"x_min":-33,"x_max":665,"o":"m 144 0 q 19 34 64 0 q -29 118 -25 68 q -21 226 -33 168 l 85 624 q 182 785 111 719 q 369 851 253 850 l 492 851 q 613 816 569 850 q 661 732 657 782 q 653 624 665 682 l 638 567 l 410 567 l 425 624 q 426 630 425 626 q 426 643 426 633 q 423 660 426 653 q 409 674 419 668 q 383 681 399 681 q 341 667 358 681 q 318 639 324 653 l 313 624 l 206 226 q 203 211 204 221 q 212 186 201 201 q 247 171 222 171 q 290 185 272 171 q 314 213 308 199 l 319 226 l 342 313 l 285 313 l 331 482 l 614 482 l 546 226 q 449 66 519 131 q 261 0 378 1 l 144 0 z "},"H":{"ha":651,"x_min":-72,"x_max":722,"o":"m -72 0 l 156 851 l 382 851 l 307 567 l 419 567 l 496 851 l 722 851 l 494 0 l 268 0 l 374 397 l 261 397 l 154 0 l -72 0 z "},"I":{"ha":311,"x_min":-72,"x_max":382,"o":"m -72 0 l 156 851 l 382 851 l 154 0 l -72 0 z "},"J":{"ha":572,"x_min":-68,"x_max":650,"o":"m 110 0 q -15 34 29 0 q -64 118 -60 68 q -56 226 -68 168 l -40 283 l 186 283 l 167 213 q 165 201 165 208 q 172 183 164 194 q 199 171 179 171 q 230 181 217 171 q 247 203 243 192 l 251 213 l 424 851 l 650 851 l 483 226 q 386 66 457 131 q 199 0 315 1 l 110 0 z "},"K":{"ha":632,"x_min":-72,"x_max":722,"o":"m -72 0 l 156 851 l 382 851 l 322 628 l 478 851 l 722 851 l 446 454 l 524 0 l 279 0 l 231 283 l 154 0 l -72 0 z "},"L":{"ha":432,"x_min":-72,"x_max":382,"o":"m -72 0 l 156 851 l 382 851 l 200 171 l 371 171 l 325 0 l -72 0 z "},"M":{"ha":765,"x_min":-72,"x_max":836,"o":"m -72 0 l 156 851 l 382 850 l 435 624 l 610 851 l 836 851 l 608 0 l 382 0 l 457 283 l 283 57 l 231 283 l 154 0 l -72 0 z "},"N":{"ha":651,"x_min":-72,"x_max":722,"o":"m -72 0 l 156 851 l 382 851 l 435 625 l 496 851 l 722 851 l 494 0 l 268 0 l 215 226 l 154 0 l -72 0 z "},"O":{"ha":632,"x_min":-33,"x_max":678,"o":"m 144 0 q 19 34 64 0 q -29 118 -25 68 q -21 226 -33 168 l 85 624 q 183 786 111 721 q 372 851 254 851 l 486 851 q 641 786 604 851 q 653 624 678 721 l 546 226 q 448 65 519 131 q 258 0 376 0 l 144 0 m 206 226 q 203 211 204 221 q 212 186 201 201 q 247 171 222 171 q 290 185 272 171 q 314 213 308 199 l 319 226 l 425 624 q 426 630 425 626 q 426 643 426 633 q 423 660 426 653 q 409 674 419 668 q 383 681 399 681 q 341 667 358 681 q 318 639 324 653 l 313 624 l 206 226 z "},"P":{"ha":622,"x_min":-72,"x_max":688,"o":"m -72 0 l 156 851 l 496 851 q 651 786 614 851 q 663 624 688 721 l 624 482 q 526 320 597 385 q 336 256 454 256 l 222 256 l 154 0 l -72 0 m 268 425 l 325 425 q 368 439 350 425 q 392 467 386 453 l 397 482 l 435 624 l 436 625 q 436 631 436 628 q 436 637 436 633 q 436 644 436 640 q 435 653 436 649 q 433 661 435 657 q 427 669 431 665 q 419 675 424 672 q 408 679 415 678 q 393 681 401 681 l 338 681 l 268 425 z "},"Q":{"ha":681,"x_min":-33,"x_max":667,"o":"m 144 0 q 19 34 64 0 q -29 118 -25 68 q -21 226 -33 168 l 85 624 q 183 786 111 721 q 372 851 254 851 l 486 851 q 588 832 547 851 q 644 781 628 813 q 663 708 660 749 q 653 624 667 667 l 546 226 q 529 178 539 201 l 571 0 l 343 0 l 340 10 q 258 0 297 0 l 144 0 m 206 226 q 203 211 204 221 q 212 186 201 201 q 247 171 222 171 q 299 192 278 171 l 264 340 l 350 340 l 425 624 l 425 625 q 426 631 426 628 q 426 637 426 633 q 426 644 426 640 q 426 653 426 649 q 423 661 425 657 q 417 669 421 665 q 410 675 414 672 q 399 679 406 678 q 383 681 392 681 q 341 667 358 681 q 318 639 324 653 l 313 624 l 206 226 z "},"R":{"ha":639,"x_min":-72,"x_max":688,"o":"m -72 0 l 156 851 l 496 851 q 651 786 614 851 q 663 624 688 721 l 624 482 q 449 275 582 325 l 513 0 l 268 0 l 215 226 l 154 0 l -72 0 m 268 425 l 325 425 q 368 439 350 425 q 392 467 386 453 l 397 482 l 435 624 q 435 630 435 626 q 436 643 436 633 q 433 660 436 653 q 419 674 429 668 q 393 681 408 681 l 338 681 l 268 425 z "},"S":{"ha":614,"x_min":-40,"x_max":629,"o":"m 138 1 q 13 35 57 1 q -36 119 -32 69 q -28 228 -40 169 l -12 285 l 214 285 l 199 228 q 198 222 199 225 q 197 208 197 218 q 201 191 197 199 q 215 177 204 183 q 240 171 225 171 q 283 185 265 171 q 307 214 301 200 l 313 228 l 328 285 q 328 291 328 288 q 329 304 329 294 q 326 322 329 314 q 312 335 322 329 q 286 342 301 342 l 229 342 q 104 376 149 342 q 56 460 60 410 q 64 568 51 510 l 78 625 q 176 787 104 722 q 367 851 247 851 l 451 851 q 576 818 532 851 q 625 734 621 785 q 617 625 629 683 l 610 596 l 383 596 l 394 639 q 397 651 396 643 q 390 670 397 658 q 363 682 382 682 q 331 672 344 682 q 314 650 318 661 l 310 639 l 297 596 q 297 590 297 593 q 296 576 296 586 q 299 559 296 567 q 313 545 303 551 q 339 539 324 539 l 396 540 q 497 521 457 540 q 553 469 538 501 q 573 397 569 438 q 563 313 576 356 l 539 228 q 441 67 513 132 q 251 1 369 1 l 138 1 z "},"T":{"ha":503,"x_min":24,"x_max":621,"o":"m 24 0 l 206 681 l 64 681 l 110 851 l 621 851 l 575 681 l 433 681 l 250 0 l 24 0 z "},"U":{"ha":640,"x_min":-29,"x_max":717,"o":"m 149 0 q 24 34 68 0 q -25 118 -21 68 q -17 228 -29 168 l 150 851 l 376 851 l 210 226 q 209 220 210 224 q 208 207 208 217 q 212 190 208 197 q 226 176 215 182 q 251 169 236 169 q 294 183 276 169 q 318 211 313 197 l 324 226 l 490 851 l 717 851 l 550 228 q 452 65 524 131 q 263 0 381 0 l 149 0 z "},"V":{"ha":650,"x_min":54,"x_max":765,"o":"m 54 0 l 113 851 l 339 851 l 306 354 l 538 851 l 765 851 l 367 0 l 54 0 z "},"W":{"ha":765,"x_min":-15,"x_max":865,"o":"m -15 0 l 128 851 l 354 851 l 299 519 l 467 738 l 517 519 l 639 851 l 865 851 l 553 0 l 325 0 l 299 114 l 211 0 l -15 0 z "},"X":{"ha":642,"x_min":-119,"x_max":732,"o":"m -119 0 l 201 458 l 136 851 l 392 851 l 408 753 l 476 851 l 732 851 l 457 458 l 532 0 l 278 0 l 250 164 l 136 0 l -119 0 z "},"Y":{"ha":597,"x_min":71,"x_max":724,"o":"m 71 0 l 176 393 l 100 851 l 326 851 l 360 654 l 497 851 l 724 851 l 403 393 l 297 0 l 71 0 z "},"Z":{"ha":490,"x_min":-96,"x_max":586,"o":"m -96 0 l -50 171 l 314 681 l 86 681 l 132 851 l 586 851 l 540 681 l 176 171 l 403 171 l 358 0 l -96 0 z "},"[":{"ha":360,"x_min":-86,"x_max":456,"o":"m -86 -53 l 172 911 l 456 911 l 410 740 l 353 740 l 186 117 l 243 117 l 197 -53 l -86 -53 z "},"\\":{"ha":715,"x_min":203,"x_max":514,"o":"m 286 0 l 203 851 l 429 851 l 514 0 l 286 0 z "},"]":{"ha":360,"x_min":-94,"x_max":447,"o":"m -94 -53 l -50 117 l 7 117 l 175 740 l 118 740 l 164 911 l 447 911 l 189 -53 l -94 -53 z "},"_":{"ha":738,"x_min":-86,"x_max":640,"o":"m -86 0 l -40 171 l 640 171 l 594 0 l -86 0 z "},"a":{"ha":653,"x_min":-114,"x_max":596,"o":"m -114 0 l 285 851 l 596 851 l 539 0 l 311 0 l 317 71 l 146 71 l 113 0 l -114 0 m 225 242 l 328 242 l 344 496 l 225 242 z "},"b":{"ha":657,"x_min":-72,"x_max":676,"o":"m -72 0 l 156 851 l 496 851 q 597 832 557 851 q 653 781 638 813 q 673 708 669 749 q 663 624 676 667 q 569 467 638 528 q 599 283 633 407 l 583 226 q 486 65 558 131 q 296 0 414 0 l -72 0 m 200 171 l 285 171 q 328 185 310 171 q 351 213 346 199 l 357 226 l 379 313 q 383 326 382 313 q 374 354 383 340 q 339 368 364 368 l 253 368 l 200 171 m 299 539 l 356 539 q 399 553 381 539 q 422 580 417 568 q 428 596 428 592 l 435 624 l 436 625 q 436 631 436 628 q 436 637 436 633 q 436 644 436 640 q 435 653 436 649 q 433 661 435 657 q 427 669 431 665 q 419 675 424 672 q 408 679 415 678 q 393 681 401 681 l 338 681 l 299 539 z "},"c":{"ha":590,"x_min":-33,"x_max":636,"o":"m 144 0 q 19 34 64 0 q -29 118 -25 68 q -21 226 -33 168 l 85 624 q 182 785 111 721 q 371 851 253 850 l 458 851 q 583 817 539 851 q 632 733 628 783 q 624 624 636 683 l 608 568 l 382 568 l 401 640 q 369 681 410 681 q 338 670 351 681 q 319 650 324 660 l 315 639 l 201 214 l 200 211 q 200 203 200 207 q 201 196 200 200 q 203 188 201 192 q 209 179 206 183 q 219 173 213 175 q 233 171 225 171 q 265 181 251 171 q 283 203 279 192 l 288 213 l 306 283 l 533 283 l 518 226 q 419 65 492 131 q 229 0 347 0 l 144 0 z "},"d":{"ha":642,"x_min":-72,"x_max":676,"o":"m -72 0 l 156 851 l 496 851 q 597 832 557 851 q 653 781 638 813 q 673 708 669 749 q 663 624 676 667 l 556 226 q 458 65 529 131 q 268 0 386 0 l -72 0 m 200 171 l 257 171 q 300 185 282 171 q 324 213 318 199 l 329 226 l 435 624 l 436 625 q 436 631 436 628 q 436 637 436 633 q 436 644 436 640 q 435 653 436 649 q 433 661 435 657 q 427 669 431 665 q 419 675 424 672 q 408 679 415 678 q 393 681 401 681 l 338 681 l 200 171 z "},"e":{"ha":507,"x_min":-72,"x_max":581,"o":"m -72 0 l 156 851 l 581 851 l 535 681 l 338 681 l 292 511 l 433 511 l 388 340 l 246 340 l 200 171 l 426 171 l 382 0 l -72 0 z "},"f":{"ha":471,"x_min":-72,"x_max":581,"o":"m -72 0 l 156 851 l 581 851 l 535 681 l 338 681 l 292 511 l 433 511 l 388 340 l 246 340 l 154 0 l -72 0 z "},"g":{"ha":631,"x_min":-33,"x_max":665,"o":"m 144 0 q 19 34 64 0 q -29 118 -25 68 q -21 226 -33 168 l 85 624 q 182 785 111 719 q 369 851 253 850 l 492 851 q 613 816 569 850 q 661 732 657 782 q 653 624 665 682 l 638 567 l 410 567 l 425 624 q 426 630 425 626 q 426 643 426 633 q 423 660 426 653 q 409 674 419 668 q 383 681 399 681 q 341 667 358 681 q 318 639 324 653 l 313 624 l 206 226 q 203 211 204 221 q 212 186 201 201 q 247 171 222 171 q 290 185 272 171 q 314 213 308 199 l 319 226 l 342 313 l 285 313 l 331 482 l 614 482 l 546 226 q 449 66 519 131 q 261 0 378 1 l 144 0 z "},"h":{"ha":651,"x_min":-72,"x_max":722,"o":"m -72 0 l 156 851 l 382 851 l 307 567 l 419 567 l 496 851 l 722 851 l 494 0 l 268 0 l 374 397 l 261 397 l 154 0 l -72 0 z "},"i":{"ha":311,"x_min":-72,"x_max":382,"o":"m -72 0 l 156 851 l 382 851 l 154 0 l -72 0 z "},"j":{"ha":572,"x_min":-68,"x_max":650,"o":"m 110 0 q -15 34 29 0 q -64 118 -60 68 q -56 226 -68 168 l -40 283 l 186 283 l 167 213 q 165 201 165 208 q 172 183 164 194 q 199 171 179 171 q 230 181 217 171 q 247 203 243 192 l 251 213 l 424 851 l 650 851 l 483 226 q 386 66 457 131 q 199 0 315 1 l 110 0 z "},"k":{"ha":632,"x_min":-72,"x_max":722,"o":"m -72 0 l 156 851 l 382 851 l 322 628 l 478 851 l 722 851 l 446 454 l 524 0 l 279 0 l 231 283 l 154 0 l -72 0 z "},"l":{"ha":432,"x_min":-72,"x_max":382,"o":"m -72 0 l 156 851 l 382 851 l 200 171 l 371 171 l 325 0 l -72 0 z "},"m":{"ha":765,"x_min":-72,"x_max":836,"o":"m -72 0 l 156 851 l 382 850 l 435 624 l 610 851 l 836 851 l 608 0 l 382 0 l 457 283 l 283 57 l 231 283 l 154 0 l -72 0 z "},"n":{"ha":651,"x_min":-72,"x_max":722,"o":"m -72 0 l 156 851 l 382 851 l 435 625 l 496 851 l 722 851 l 494 0 l 268 0 l 215 226 l 154 0 l -72 0 z "},"o":{"ha":632,"x_min":-33,"x_max":678,"o":"m 144 0 q 19 34 64 0 q -29 118 -25 68 q -21 226 -33 168 l 85 624 q 183 786 111 721 q 372 851 254 851 l 486 851 q 641 786 604 851 q 653 624 678 721 l 546 226 q 448 65 519 131 q 258 0 376 0 l 144 0 m 206 226 q 203 211 204 221 q 212 186 201 201 q 247 171 222 171 q 290 185 272 171 q 314 213 308 199 l 319 226 l 425 624 q 426 630 425 626 q 426 643 426 633 q 423 660 426 653 q 409 674 419 668 q 383 681 399 681 q 341 667 358 681 q 318 639 324 653 l 313 624 l 206 226 z "},"p":{"ha":622,"x_min":-72,"x_max":688,"o":"m -72 0 l 156 851 l 496 851 q 651 786 614 851 q 663 624 688 721 l 624 482 q 526 320 597 385 q 336 256 454 256 l 222 256 l 154 0 l -72 0 m 268 425 l 325 425 q 368 439 350 425 q 392 467 386 453 l 397 482 l 435 624 l 436 625 q 436 631 436 628 q 436 637 436 633 q 436 644 436 640 q 435 653 436 649 q 433 661 435 657 q 427 669 431 665 q 419 675 424 672 q 408 679 415 678 q 393 681 401 681 l 338 681 l 268 425 z "},"q":{"ha":681,"x_min":-33,"x_max":667,"o":"m 144 0 q 19 34 64 0 q -29 118 -25 68 q -21 226 -33 168 l 85 624 q 183 786 111 721 q 372 851 254 851 l 486 851 q 588 832 547 851 q 644 781 628 813 q 663 708 660 749 q 653 624 667 667 l 546 226 q 529 178 539 201 l 571 0 l 343 0 l 340 10 q 258 0 297 0 l 144 0 m 206 226 q 203 211 204 221 q 212 186 201 201 q 247 171 222 171 q 299 192 278 171 l 264 340 l 350 340 l 425 624 l 425 625 q 426 631 426 628 q 426 637 426 633 q 426 644 426 640 q 426 653 426 649 q 423 661 425 657 q 417 669 421 665 q 410 675 414 672 q 399 679 406 678 q 383 681 392 681 q 341 667 358 681 q 318 639 324 653 l 313 624 l 206 226 z "},"r":{"ha":639,"x_min":-72,"x_max":688,"o":"m -72 0 l 156 851 l 496 851 q 651 786 614 851 q 663 624 688 721 l 624 482 q 449 275 582 325 l 513 0 l 268 0 l 215 226 l 154 0 l -72 0 m 268 425 l 325 425 q 368 439 350 425 q 392 467 386 453 l 397 482 l 435 624 q 435 630 435 626 q 436 643 436 633 q 433 660 436 653 q 419 674 429 668 q 393 681 408 681 l 338 681 l 268 425 z "},"s":{"ha":614,"x_min":-40,"x_max":629,"o":"m 138 1 q 13 35 57 1 q -36 119 -32 69 q -28 228 -40 169 l -12 285 l 214 285 l 199 228 q 198 222 199 225 q 197 208 197 218 q 201 191 197 199 q 215 177 204 183 q 240 171 225 171 q 283 185 265 171 q 307 214 301 200 l 313 228 l 328 285 q 328 291 328 288 q 329 304 329 294 q 326 322 329 314 q 312 335 322 329 q 286 342 301 342 l 229 342 q 104 376 149 342 q 56 460 60 410 q 64 568 51 510 l 78 625 q 176 787 104 722 q 367 851 247 851 l 451 851 q 576 818 532 851 q 625 734 621 785 q 617 625 629 683 l 610 596 l 383 596 l 394 639 q 397 651 396 643 q 390 670 397 658 q 363 682 382 682 q 331 672 344 682 q 314 650 318 661 l 310 639 l 297 596 q 297 590 297 593 q 296 576 296 586 q 299 559 296 567 q 313 545 303 551 q 339 539 324 539 l 396 540 q 497 521 457 540 q 553 469 538 501 q 573 397 569 438 q 563 313 576 356 l 539 228 q 441 67 513 132 q 251 1 369 1 l 138 1 z "},"t":{"ha":503,"x_min":24,"x_max":621,"o":"m 24 0 l 206 681 l 64 681 l 110 851 l 621 851 l 575 681 l 433 681 l 250 0 l 24 0 z "},"u":{"ha":640,"x_min":-29,"x_max":717,"o":"m 149 0 q 24 34 68 0 q -25 118 -21 68 q -17 228 -29 168 l 150 851 l 376 851 l 210 226 q 209 220 210 224 q 208 207 208 217 q 212 190 208 197 q 226 176 215 182 q 251 169 236 169 q 294 183 276 169 q 318 211 313 197 l 324 226 l 490 851 l 717 851 l 550 228 q 452 65 524 131 q 263 0 381 0 l 149 0 z "},"v":{"ha":650,"x_min":54,"x_max":765,"o":"m 54 0 l 113 851 l 339 851 l 306 354 l 538 851 l 765 851 l 367 0 l 54 0 z "},"w":{"ha":765,"x_min":-15,"x_max":865,"o":"m -15 0 l 128 851 l 354 851 l 299 519 l 467 738 l 517 519 l 639 851 l 865 851 l 553 0 l 325 0 l 299 114 l 211 0 l -15 0 z "},"x":{"ha":642,"x_min":-119,"x_max":732,"o":"m -119 0 l 201 458 l 136 851 l 392 851 l 408 753 l 476 851 l 732 851 l 457 458 l 532 0 l 278 0 l 250 164 l 136 0 l -119 0 z "},"y":{"ha":597,"x_min":71,"x_max":724,"o":"m 71 0 l 176 393 l 100 851 l 326 851 l 360 654 l 497 851 l 724 851 l 403 393 l 297 0 l 71 0 z "},"z":{"ha":490,"x_min":-96,"x_max":586,"o":"m -96 0 l -50 171 l 314 681 l 86 681 l 132 851 l 586 851 l 540 681 l 176 171 l 403 171 l 358 0 l -96 0 z "},"{":{"ha":406,"x_min":-7,"x_max":501,"o":"m 186 -53 q 31 12 68 -53 q 19 174 -7 76 l 50 286 q 71 344 58 315 l 8 344 l 54 514 l 117 514 q 126 572 119 546 l 157 685 q 255 846 183 781 q 444 911 326 911 l 501 911 l 456 740 q 413 726 431 740 q 389 699 394 713 l 383 685 l 353 572 q 275 429 332 489 q 276 286 300 371 l 247 174 q 244 158 246 167 q 253 133 243 149 q 288 117 263 117 l 243 -53 l 186 -53 z "},"|":{"ha":311,"x_min":-86,"x_max":399,"o":"m -86 -53 l 172 911 l 399 911 l 140 -53 l -86 -53 z "},"}":{"ha":406,"x_min":-94,"x_max":413,"o":"m -50 117 q -7 131 -25 117 q 17 158 11 144 l 22 174 l 53 286 q 131 429 75 371 q 129 572 107 488 l 160 685 q 163 700 161 690 q 153 725 164 710 q 118 740 143 740 l 164 911 l 219 911 q 375 846 338 911 q 386 685 413 781 l 356 572 q 335 514 350 543 l 397 514 l 351 344 l 289 344 q 279 286 286 313 l 250 174 q 152 12 224 76 q -39 -53 81 -53 l -94 -53 l -50 117 z "}," ":{"ha":288,"x_min":0,"x_max":0,"o":""},"¡":{"ha":306,"x_min":-112,"x_max":342,"o":"m -112 -142 l 39 425 l 265 425 l 114 -142 l -112 -142 m 54 482 l 115 708 l 342 708 l 281 482 l 54 482 z "},"¢":{"ha":613,"x_min":-36,"x_max":656,"o":"m 101 8 q -10 84 15 22 q -14 231 -36 146 l 93 628 q 174 774 115 713 q 328 850 232 835 l 353 944 l 522 944 l 499 853 q 626 780 596 843 q 632 628 656 717 l 617 571 l 390 571 l 410 644 q 378 685 418 685 q 345 674 358 685 q 328 653 332 664 l 324 643 l 210 217 l 208 214 q 208 206 208 210 q 209 199 208 203 q 212 190 210 194 q 217 182 214 186 q 226 176 219 178 q 240 174 232 174 q 273 184 260 174 q 290 206 286 194 l 294 217 l 314 288 l 540 288 l 525 231 q 438 78 501 142 q 271 6 375 15 l 246 -89 l 75 -89 l 101 8 z "},"£":{"ha":769,"x_min":-79,"x_max":824,"o":"m -79 0 q 42 313 -32 179 l 4 313 l 50 482 l 128 482 q 165 596 147 532 q 275 778 194 704 q 489 851 356 851 l 631 851 q 786 786 749 851 q 797 624 824 721 l 569 625 q 571 639 568 626 q 560 666 574 651 q 514 681 546 681 q 460 667 482 681 q 433 639 439 653 l 428 625 l 421 596 q 383 482 403 532 l 489 482 l 444 313 l 297 313 q 231 171 256 238 l 647 171 l 601 0 l -79 0 z "},"¥":{"ha":653,"x_min":18,"x_max":751,"o":"m 99 0 l 132 124 l 18 124 l 64 294 l 178 294 l 193 351 l 79 351 l 125 521 l 183 521 l 128 851 l 356 851 l 388 654 l 525 851 l 751 851 l 521 521 l 579 521 l 533 351 l 419 351 l 404 294 l 518 294 l 472 124 l 358 124 l 325 0 l 99 0 z "},"§":{"ha":644,"x_min":-37,"x_max":690,"o":"m 140 -142 q 15 -108 60 -142 q -33 -24 -29 -74 q -25 85 -37 26 l -18 114 l 210 114 l 197 71 q 195 59 196 67 q 202 40 194 51 q 229 28 210 28 q 261 39 247 28 q 279 61 275 50 l 283 71 l 294 114 q 295 120 294 117 q 296 133 296 124 q 292 151 296 143 q 278 165 289 158 q 253 171 268 171 l 196 171 q 71 205 115 171 q 22 289 26 239 q 31 397 18 339 l 53 482 q 118 611 74 560 q 122 740 101 665 l 138 797 q 235 958 164 893 q 425 1024 307 1024 l 510 1024 q 611 1004 571 1024 q 667 953 651 985 q 687 880 683 921 q 676 797 690 839 l 668 768 l 442 768 l 453 811 q 455 823 454 815 q 448 842 456 831 q 422 854 440 854 q 390 844 403 854 q 372 822 376 833 l 368 811 l 356 768 q 355 762 356 765 q 354 749 354 758 q 358 731 354 739 q 372 717 361 724 q 397 711 382 711 l 454 711 q 610 646 572 711 q 621 485 647 581 l 597 400 q 532 271 579 326 q 529 142 549 221 l 514 85 q 416 -76 488 -11 q 226 -142 344 -142 l 140 -142 m 257 400 q 256 394 257 397 q 256 381 256 390 q 259 363 256 371 q 273 349 263 356 q 299 343 283 343 q 354 368 332 343 l 371 400 l 393 482 q 394 488 393 485 q 394 501 394 492 q 391 519 394 511 q 377 533 388 526 q 351 539 367 539 q 296 514 318 539 l 279 482 l 257 400 z "},"©":{"ha":733,"x_min":-56,"x_max":765,"o":"m 40 0 q -37 33 -19 0 q -43 114 -56 65 l 101 653 q 150 733 114 700 q 244 765 186 765 l 671 765 q 747 733 729 765 q 753 653 765 700 l 608 114 q 560 33 596 65 q 465 0 524 0 l 40 0 m 69 114 q 90 85 63 85 l 460 85 q 481 92 472 85 q 493 107 490 100 l 496 114 l 640 653 q 619 681 647 681 l 250 681 q 228 674 238 681 q 217 660 219 667 l 214 653 l 69 114 m 201 285 l 254 483 q 303 564 267 532 q 397 597 339 596 l 440 597 q 517 565 499 597 q 524 483 536 532 l 517 456 l 403 456 l 413 492 q 397 511 413 511 q 381 506 388 511 q 372 494 374 500 l 369 490 l 313 278 q 328 257 313 257 q 344 262 338 257 q 353 272 351 267 l 356 278 l 365 313 l 478 313 l 471 285 q 422 203 458 236 q 326 171 385 171 l 285 171 q 207 203 225 171 q 201 285 189 236 z "},"ª":{"ha":265,"x_min":79,"x_max":314,"o":"m 79 631 l 211 911 l 314 911 l 294 631 l 219 631 l 222 653 l 165 653 l 154 631 l 79 631 m 192 710 l 225 710 l 231 793 l 192 710 z "},"«":{"ha":783,"x_min":0,"x_max":767,"o":"m 540 142 l 371 372 l 664 603 l 767 463 l 653 372 l 718 282 l 540 142 m 0 372 l 292 603 l 396 463 l 281 372 l 347 282 l 168 142 l 0 372 z "},"­":{"ha":0,"x_min":0,"x_max":0,"o":""},"®":{"ha":408,"x_min":56,"x_max":496,"o":"m 111 504 q 69 561 56 504 l 142 831 q 214 886 156 886 l 440 886 q 482 831 496 886 l 410 561 q 338 504 396 504 l 111 504 m 126 561 q 136 546 122 546 l 335 546 q 345 549 340 546 q 351 557 350 553 l 353 561 l 425 831 q 415 844 429 844 l 217 844 q 206 841 211 844 q 200 833 201 838 l 199 831 l 126 561 m 176 590 l 233 803 l 318 803 q 358 786 349 803 q 360 746 367 769 l 350 710 q 307 658 340 672 l 322 590 l 261 590 l 249 646 l 233 590 l 176 590 m 261 696 l 276 696 q 287 699 282 696 q 293 706 292 703 l 294 710 l 303 746 q 293 760 307 760 l 279 760 l 261 696 z "},"°":{"ha":485,"x_min":83,"x_max":549,"o":"m 228 532 q 111 581 139 532 q 103 701 83 629 q 176 824 122 775 q 319 872 231 872 l 404 872 q 521 824 493 872 q 529 701 549 775 q 456 581 510 629 q 313 532 401 532 l 228 532 m 274 701 q 273 697 274 700 q 272 687 272 694 q 275 674 272 679 q 285 664 278 668 q 304 660 293 660 q 336 670 322 660 q 354 690 350 681 q 358 701 358 699 l 358 703 q 359 708 358 706 q 360 713 360 710 q 359 720 360 717 q 358 727 358 724 q 354 733 357 731 q 348 739 351 736 q 340 743 344 742 q 328 744 335 744 q 296 734 310 744 q 278 714 282 724 q 274 701 274 704 z "},"²":{"ha":236,"x_min":83,"x_max":336,"o":"m 107 714 q 201 789 126 789 l 211 789 q 225 793 219 789 q 233 803 231 797 l 235 807 l 243 840 q 233 854 247 854 q 223 851 228 854 q 217 844 218 847 l 215 840 l 208 817 l 135 817 l 139 836 q 233 911 158 911 l 263 911 q 317 836 336 911 l 307 799 q 213 724 288 724 l 203 724 q 188 719 194 724 q 181 708 182 714 l 179 704 l 174 686 l 268 686 l 253 631 l 83 631 l 107 714 z "},"³":{"ha":243,"x_min":82,"x_max":343,"o":"m 156 631 q 101 704 82 631 l 104 714 l 179 714 l 176 704 q 190 686 171 686 q 204 690 199 686 q 211 700 210 694 l 214 704 l 218 724 q 204 742 224 742 l 167 742 l 182 799 l 219 799 q 234 803 228 799 q 242 813 240 808 l 243 817 l 249 836 q 235 854 254 854 q 221 849 226 854 q 214 840 215 844 l 211 836 l 208 826 l 133 826 l 136 836 q 231 911 156 911 l 268 911 q 324 836 343 911 l 318 817 q 293 771 311 789 q 293 724 300 753 l 289 704 q 193 631 267 631 l 156 631 z "},"·":{"ha":349,"x_min":-11,"x_max":349,"o":"m -11 265 l 65 550 l 349 550 l 272 265 l -11 265 z "},"¹":{"ha":190,"x_min":125,"x_max":290,"o":"m 140 631 l 190 817 l 125 817 l 206 911 l 290 911 l 214 631 l 140 631 z "},"º":{"ha":246,"x_min":85,"x_max":346,"o":"m 158 631 q 104 704 85 631 l 139 836 q 233 911 158 911 l 271 911 q 326 836 346 911 l 292 704 q 196 631 269 631 l 158 631 m 179 704 q 193 686 174 686 q 207 690 201 686 q 214 700 213 694 l 217 704 l 251 836 q 238 854 257 854 q 224 849 229 854 q 217 840 218 844 l 214 836 l 179 704 z "},"»":{"ha":783,"x_min":-12,"x_max":756,"o":"m 463 142 l 360 282 l 474 372 l 408 463 l 586 603 l 756 372 l 463 142 m -12 282 l 103 372 l 36 463 l 215 603 l 383 372 l 92 142 l -12 282 z "},"¿":{"ha":739,"x_min":-87,"x_max":583,"o":"m 128 -142 q -47 -68 -6 -142 q -58 114 -87 6 l -51 142 q 52 314 -19 260 q 208 368 124 368 q 225 370 217 368 q 240 375 233 372 q 251 382 246 378 q 260 391 256 386 q 267 400 264 396 q 273 409 271 404 q 277 417 275 414 q 281 422 279 419 l 281 425 l 507 425 l 492 368 q 408 207 465 272 q 261 142 350 142 q 218 127 236 142 q 194 101 200 113 q 189 85 189 89 q 188 69 190 82 q 199 42 185 57 q 244 28 213 28 q 298 42 276 28 q 325 69 319 56 l 331 85 l 557 85 q 460 -76 532 -11 q 269 -142 388 -142 l 128 -142 m 296 482 l 356 708 l 583 708 l 522 482 l 296 482 z "},"À":{"ha":653,"x_min":-114,"x_max":597,"o":"m -114 0 l 285 851 l 596 851 l 539 0 l 311 0 l 317 71 l 146 71 l 113 0 l -114 0 m 196 1106 l 451 1106 l 597 907 l 342 907 l 196 1106 m 226 242 l 328 242 l 344 496 l 226 242 z "},"Á":{"ha":653,"x_min":-114,"x_max":821,"o":"m -114 0 l 285 851 l 596 851 l 539 0 l 311 0 l 317 71 l 146 71 l 113 0 l -114 0 m 225 242 l 328 242 l 344 496 l 225 242 m 314 907 l 565 1106 l 821 1106 l 568 907 l 314 907 z "},"Â":{"ha":656,"x_min":-112,"x_max":768,"o":"m -112 0 l 286 851 l 597 851 l 540 0 l 313 0 l 318 71 l 147 71 l 114 0 l -112 0 m 144 907 l 396 1106 l 624 1106 l 768 907 l 514 907 l 472 964 l 400 907 l 144 907 m 226 242 l 329 242 l 346 496 l 226 242 z "},"Ã":{"ha":653,"x_min":-114,"x_max":792,"o":"m -114 0 l 285 851 l 596 851 l 539 0 l 311 0 l 317 71 l 146 71 l 113 0 l -114 0 m 200 907 l 221 983 q 261 1058 228 1019 q 417 1135 322 1135 l 449 1135 q 510 1116 485 1135 q 547 1074 536 1097 q 567 1033 557 1051 q 586 1014 578 1014 q 609 1021 600 1014 q 621 1035 618 1028 l 624 1042 l 642 1106 l 792 1106 l 779 1058 q 739 983 772 1025 q 582 907 674 907 l 551 907 q 489 922 515 907 q 451 953 463 936 q 427 985 439 971 q 406 1000 415 1000 q 383 993 393 1000 q 371 979 374 986 l 368 972 l 351 907 l 200 907 m 225 242 l 328 242 l 344 496 l 225 242 z "},"Ä":{"ha":653,"x_min":-114,"x_max":735,"o":"m -114 0 l 285 851 l 596 851 l 538 0 l 311 0 l 317 71 l 146 71 l 113 0 l -114 0 m 225 242 l 328 242 l 344 496 l 225 242 m 228 907 l 282 1106 l 481 1106 l 426 907 l 228 907 m 483 907 l 536 1106 l 735 1106 l 682 907 l 483 907 z "},"Å":{"ha":653,"x_min":-114,"x_max":671,"o":"m 275 831 q 275 922 261 865 l 285 958 q 348 1063 301 1021 q 472 1106 394 1106 l 546 1106 q 647 1063 622 1106 q 653 958 671 1021 l 643 922 q 594 831 629 868 l 538 0 l 311 0 l 317 71 l 146 71 l 113 0 l -114 0 l 275 831 m 225 242 l 328 242 l 344 496 l 225 242 m 422 922 q 449 885 413 885 q 477 894 465 885 q 492 913 489 903 l 496 922 l 506 958 q 479 996 515 996 q 451 987 463 996 q 436 968 439 978 l 432 958 l 422 922 z "},"Æ":{"ha":856,"x_min":-122,"x_max":928,"o":"m -122 0 l 361 851 l 928 851 l 882 681 l 683 681 l 639 511 l 781 511 l 735 340 l 593 340 l 547 171 l 774 171 l 728 0 l 275 0 l 297 85 l 153 85 l 104 0 l -122 0 m 250 256 l 343 256 l 426 567 l 250 256 z "},"Ç":{"ha":590,"x_min":-33,"x_max":651,"o":"m 90 -251 q 23 -224 39 -251 q 18 -154 7 -196 l 117 -154 q 140 -179 110 -179 q 163 -173 154 -179 q 175 -161 172 -167 l 176 -154 q 178 -148 178 -154 q 175 -136 179 -142 q 160 -131 171 -131 q 110 -100 121 -131 q 113 -32 99 -69 l 122 4 q 13 43 51 8 q -30 126 -26 78 q -21 231 -33 175 l 86 628 q 183 788 113 724 q 371 854 254 853 l 458 854 q 614 789 576 854 q 625 628 651 724 l 610 571 l 383 571 l 403 643 q 371 683 410 683 q 338 673 351 683 q 321 653 325 663 l 317 642 l 203 217 q 201 204 203 214 q 207 184 199 194 q 233 174 215 174 q 266 184 253 174 q 283 206 279 194 l 288 215 l 307 286 l 533 286 l 518 231 q 420 68 492 133 q 231 3 349 3 l 219 3 l 217 -8 q 215 -15 217 -10 q 219 -26 214 -21 q 235 -32 224 -32 q 289 -56 271 -32 q 293 -131 307 -79 l 290 -142 q 151 -251 260 -251 l 90 -251 z "},"È":{"ha":508,"x_min":-72,"x_max":582,"o":"m -72 0 l 156 851 l 582 851 l 536 681 l 338 681 l 292 511 l 433 511 l 388 340 l 246 340 l 200 171 l 428 171 l 382 0 l -72 0 m 139 1106 l 394 1106 l 540 908 l 285 908 l 139 1106 z "},"É":{"ha":508,"x_min":-72,"x_max":678,"o":"m -72 0 l 156 851 l 581 851 l 535 681 l 338 681 l 292 511 l 433 511 l 388 340 l 246 340 l 200 171 l 426 171 l 382 0 l -72 0 m 171 907 l 422 1106 l 678 1106 l 426 907 l 171 907 z "},"Ê":{"ha":510,"x_min":-72,"x_max":696,"o":"m -72 0 l 156 851 l 582 851 l 536 681 l 338 681 l 292 511 l 433 511 l 388 340 l 246 340 l 200 171 l 428 171 l 382 0 l -72 0 m 72 908 l 324 1106 l 551 1106 l 696 908 l 440 908 l 400 964 l 328 908 l 72 908 z "},"Ë":{"ha":508,"x_min":-72,"x_max":664,"o":"m -72 0 l 156 851 l 581 851 l 536 681 l 338 681 l 292 511 l 433 511 l 388 340 l 246 340 l 200 171 l 428 171 l 382 0 l -72 0 m 157 907 l 210 1106 l 408 1106 l 356 907 l 157 907 m 413 907 l 465 1106 l 664 1106 l 611 907 l 413 907 z "},"Ì":{"ha":310,"x_min":-72,"x_max":419,"o":"m -72 0 l 156 851 l 382 851 l 154 0 l -72 0 m 18 1106 l 274 1106 l 419 907 l 164 907 l 18 1106 z "},"Í":{"ha":310,"x_min":-74,"x_max":656,"o":"m -74 0 l 156 851 l 382 851 l 154 0 l -74 0 m 149 907 l 400 1106 l 656 1106 l 404 907 l 149 907 z "},"Î":{"ha":311,"x_min":-72,"x_max":596,"o":"m -72 0 l 156 851 l 382 851 l 154 0 l -72 0 m -28 907 l 224 1106 l 451 1106 l 596 907 l 340 907 l 299 964 l 228 907 l -28 907 z "},"Ï":{"ha":310,"x_min":-72,"x_max":564,"o":"m -72 0 l 156 851 l 382 851 l 154 0 l -72 0 m 57 907 l 110 1106 l 308 1106 l 256 907 l 57 907 m 313 907 l 365 1106 l 564 1106 l 511 907 l 313 907 z "},"Ñ":{"ha":651,"x_min":-72,"x_max":792,"o":"m -72 0 l 156 851 l 382 851 l 435 624 l 496 851 l 722 851 l 494 0 l 268 0 l 215 226 l 154 0 l -72 0 m 171 907 l 192 983 q 232 1058 199 1019 q 396 1135 297 1135 l 429 1135 q 495 1116 468 1135 q 533 1074 522 1097 q 556 1033 544 1051 q 576 1014 567 1014 q 600 1021 590 1014 q 613 1035 610 1028 l 615 1042 l 632 1106 l 792 1106 l 778 1058 q 738 983 771 1022 q 574 907 669 907 l 540 907 q 474 922 503 907 q 433 953 446 936 q 408 985 421 971 q 386 1000 396 1000 q 363 993 372 1000 q 350 979 353 986 l 347 972 l 329 907 l 171 907 z "},"Ò":{"ha":631,"x_min":-49,"x_max":678,"o":"m 144 0 q -11 65 26 0 q -22 226 -49 131 l 85 624 q 183 786 111 721 q 372 851 254 851 l 485 851 q 640 786 603 851 q 651 624 678 721 l 544 226 q 447 65 519 131 q 257 0 375 0 l 144 0 m 181 1106 l 436 1106 l 582 908 l 326 908 l 181 1106 m 204 226 q 203 220 204 224 q 203 207 203 217 q 207 190 204 197 q 220 177 210 183 q 246 171 231 171 q 289 185 271 171 q 313 213 307 199 l 318 226 l 425 624 q 426 630 425 626 q 426 643 426 633 q 423 660 426 653 q 409 674 419 668 q 383 681 399 681 q 340 667 358 681 q 317 639 322 653 l 311 624 l 204 226 z "},"Ó":{"ha":631,"x_min":-33,"x_max":814,"o":"m 144 0 q 19 34 64 0 q -29 118 -25 68 q -21 226 -33 168 l 85 624 q 183 786 111 721 q 372 851 254 851 l 486 851 q 641 786 604 851 q 653 624 678 721 l 546 226 q 448 65 519 131 q 258 0 376 0 l 144 0 m 206 226 q 203 211 204 221 q 212 186 201 201 q 247 171 222 171 q 290 185 272 171 q 314 213 308 199 l 319 226 l 425 624 q 426 630 425 626 q 426 643 426 633 q 423 660 426 653 q 409 674 419 668 q 383 681 399 681 q 341 667 358 681 q 318 639 324 653 l 313 624 l 206 226 m 307 908 l 558 1106 l 814 1106 l 563 908 l 307 908 z "},"Ô":{"ha":631,"x_min":-49,"x_max":756,"o":"m 144 0 q -11 65 26 0 q -22 226 -49 131 l 85 624 q 183 786 111 721 q 372 851 254 851 l 485 851 q 640 786 603 851 q 651 624 678 721 l 544 226 q 447 65 519 131 q 257 0 375 0 l 144 0 m 132 908 l 383 1107 l 611 1107 l 756 908 l 500 908 l 460 964 l 388 908 l 132 908 m 204 226 q 203 220 204 224 q 203 207 203 217 q 207 190 204 197 q 220 177 210 183 q 246 171 231 171 q 289 185 271 171 q 313 213 307 199 l 318 226 l 425 624 q 426 630 425 626 q 426 643 426 633 q 423 660 426 653 q 409 674 419 668 q 383 681 399 681 q 340 667 358 681 q 317 639 322 653 l 311 624 l 204 226 z "},"Õ":{"ha":632,"x_min":-33,"x_max":767,"o":"m 144 0 q 19 34 64 0 q -29 118 -25 68 q -21 226 -33 168 l 85 624 q 183 786 111 721 q 372 851 254 851 l 486 851 q 641 786 604 851 q 653 624 678 721 l 546 226 q 448 65 519 131 q 258 0 376 0 l 144 0 m 175 908 l 196 983 q 236 1060 203 1018 q 393 1135 296 1135 l 424 1135 q 485 1116 460 1135 q 522 1074 511 1097 q 542 1033 532 1051 q 561 1014 553 1014 q 584 1021 575 1014 q 596 1035 593 1028 l 599 1042 l 617 1107 l 767 1107 l 754 1060 q 714 983 747 1022 q 558 908 650 908 l 526 908 q 464 923 490 908 q 426 954 438 938 q 402 985 414 971 q 381 1000 390 1000 q 358 993 368 1000 q 346 979 349 986 l 343 972 l 326 908 l 175 908 m 206 226 q 203 211 204 221 q 212 186 201 201 q 247 171 222 171 q 290 185 272 171 q 314 213 308 199 l 319 226 l 425 624 q 426 630 425 626 q 426 643 426 633 q 423 660 426 653 q 409 674 419 668 q 383 681 399 681 q 341 667 358 681 q 318 639 324 653 l 313 624 l 206 226 z "},"Ö":{"ha":632,"x_min":-33,"x_max":725,"o":"m 144 0 q 19 34 64 0 q -29 118 -25 68 q -21 226 -33 168 l 85 624 q 183 786 111 721 q 372 851 254 851 l 486 851 q 641 786 604 851 q 653 624 678 721 l 546 226 q 448 65 519 131 q 258 0 376 0 l 144 0 m 206 226 q 203 211 204 221 q 212 186 201 201 q 247 171 222 171 q 290 185 272 171 q 314 213 308 199 l 319 226 l 425 624 q 426 630 425 626 q 426 643 426 633 q 423 660 426 653 q 409 674 419 668 q 383 681 399 681 q 341 667 358 681 q 318 639 324 653 l 313 624 l 206 226 m 218 908 l 271 1106 l 469 1106 l 417 908 l 218 908 m 474 908 l 526 1106 l 725 1106 l 672 908 l 474 908 z "},"×":{"ha":515,"x_min":-12,"x_max":497,"o":"m 92 142 l -12 282 l 103 372 l 36 463 l 215 603 l 281 514 l 394 603 l 497 463 l 383 372 l 450 282 l 271 142 l 206 232 l 92 142 z "},"Ø":{"ha":664,"x_min":-82,"x_max":746,"o":"m -11 0 l -82 60 l -15 131 q -6 228 -19 174 l 101 625 q 199 786 128 721 q 389 851 271 851 l 503 851 q 636 811 589 851 l 674 853 l 746 792 l 678 721 q 668 625 683 678 l 563 228 q 465 65 536 131 q 275 0 393 0 l 161 0 q 28 40 72 0 l -11 0 m 222 228 q 222 222 222 225 q 221 208 221 218 q 224 191 221 199 q 238 177 228 183 q 264 171 249 171 q 306 185 289 171 q 329 214 324 200 l 335 228 l 385 414 l 228 250 l 222 228 m 278 438 l 436 603 l 442 625 q 442 631 442 628 q 443 644 443 635 q 440 662 443 654 q 426 676 436 669 q 400 682 415 682 q 357 667 375 682 q 333 639 339 653 l 328 625 l 313 568 l 278 438 z "},"Ù":{"ha":640,"x_min":-42,"x_max":718,"o":"m 150 0 q -5 65 32 0 q -17 228 -42 131 l 151 851 l 378 851 l 211 226 q 208 211 210 221 q 217 186 207 201 q 253 171 228 171 q 295 185 278 171 q 318 213 313 199 l 324 226 l 492 851 l 718 851 l 551 228 q 453 65 525 131 q 264 0 382 0 l 150 0 m 176 1107 l 432 1107 l 578 908 l 322 908 l 176 1107 z "},"Ú":{"ha":640,"x_min":-29,"x_max":828,"o":"m 149 0 q 24 34 68 0 q -25 118 -21 68 q -17 228 -29 168 l 150 851 l 376 851 l 210 226 q 207 211 208 221 q 216 186 206 201 q 251 171 226 171 q 294 185 276 171 q 318 213 313 199 l 324 226 l 490 851 l 717 851 l 550 228 q 452 65 524 131 q 263 0 381 0 l 149 0 m 321 908 l 574 1107 l 828 1107 l 576 908 l 321 908 z "},"Û":{"ha":642,"x_min":-43,"x_max":761,"o":"m 150 0 q -6 65 32 0 q -17 228 -43 131 l 151 851 l 378 851 l 210 226 q 207 211 208 221 q 216 186 206 201 q 251 171 226 171 q 294 185 276 171 q 318 213 313 199 l 324 226 l 492 851 l 718 851 l 551 228 q 453 65 525 131 q 263 0 381 0 l 150 0 m 138 908 l 389 1107 l 617 1107 l 761 908 l 506 908 l 465 965 l 393 908 l 138 908 z "},"Ü":{"ha":640,"x_min":-29,"x_max":729,"o":"m 149 0 q 24 34 68 0 q -25 118 -21 68 q -17 228 -29 168 l 150 851 l 376 851 l 210 226 q 207 211 208 221 q 216 186 206 201 q 251 171 226 171 q 294 185 276 171 q 318 213 313 199 l 324 226 l 490 851 l 717 851 l 550 228 q 452 65 524 131 q 263 0 381 0 l 149 0 m 222 908 l 275 1107 l 474 1107 l 421 908 l 222 908 m 478 908 l 531 1107 l 729 1107 l 676 908 l 478 908 z "},"Ý":{"ha":597,"x_min":71,"x_max":807,"o":"m 71 0 l 176 393 l 100 851 l 326 851 l 360 654 l 497 851 l 724 851 l 403 393 l 297 0 l 71 0 m 300 907 l 551 1106 l 807 1106 l 554 907 l 300 907 z "},"ß":{"ha":683,"x_min":-110,"x_max":717,"o":"m -64 143 q -22 158 -40 143 q 1 186 -4 172 l 7 200 l 122 631 q 234 803 154 749 q 410 857 314 857 l 524 857 q 679 792 642 857 q 690 631 717 726 q 597 474 665 535 q 626 290 661 414 l 611 233 q 515 72 586 138 q 324 7 443 7 l 296 7 q 287 7 293 7 q 267 10 281 7 q 244 19 254 14 q 228 35 235 24 q 226 63 222 47 l 267 215 q 266 206 268 214 q 276 187 264 197 q 313 176 288 176 q 356 191 338 176 q 379 219 374 206 l 385 233 l 408 318 q 409 324 408 321 q 409 338 410 328 q 406 355 408 347 q 392 369 403 363 q 367 375 382 375 l 338 375 l 383 546 q 426 560 408 546 q 450 588 444 574 l 456 601 l 463 631 l 464 632 q 464 637 464 633 q 465 644 464 640 q 465 653 465 649 q 463 663 464 658 q 458 671 461 667 q 451 678 456 675 q 441 685 447 682 q 426 688 435 688 l 421 688 q 379 673 397 688 q 356 647 361 658 q 350 631 350 635 l 233 197 q 122 27 201 81 q -53 -26 43 -26 l -110 -26 l -64 143 z "},"à":{"ha":653,"x_min":-114,"x_max":597,"o":"m -114 0 l 285 851 l 596 851 l 539 0 l 311 0 l 317 71 l 146 71 l 113 0 l -114 0 m 196 1106 l 451 1106 l 597 907 l 342 907 l 196 1106 m 226 242 l 328 242 l 344 496 l 226 242 z "},"á":{"ha":653,"x_min":-114,"x_max":821,"o":"m -114 0 l 285 851 l 596 851 l 539 0 l 311 0 l 317 71 l 146 71 l 113 0 l -114 0 m 225 242 l 328 242 l 344 496 l 225 242 m 314 907 l 565 1106 l 821 1106 l 568 907 l 314 907 z "},"â":{"ha":656,"x_min":-112,"x_max":768,"o":"m -112 0 l 286 851 l 597 851 l 540 0 l 313 0 l 318 71 l 147 71 l 114 0 l -112 0 m 144 907 l 396 1106 l 624 1106 l 768 907 l 514 907 l 472 964 l 400 907 l 144 907 m 226 242 l 329 242 l 346 496 l 226 242 z "},"ã":{"ha":653,"x_min":-114,"x_max":792,"o":"m -114 0 l 285 851 l 596 851 l 539 0 l 311 0 l 317 71 l 146 71 l 113 0 l -114 0 m 200 907 l 221 983 q 261 1058 228 1019 q 417 1135 322 1135 l 449 1135 q 510 1116 485 1135 q 547 1074 536 1097 q 567 1033 557 1051 q 586 1014 578 1014 q 609 1021 600 1014 q 621 1035 618 1028 l 624 1042 l 642 1106 l 792 1106 l 779 1058 q 739 983 772 1025 q 582 907 674 907 l 551 907 q 489 922 515 907 q 451 953 463 936 q 427 985 439 971 q 406 1000 415 1000 q 383 993 393 1000 q 371 979 374 986 l 368 972 l 351 907 l 200 907 m 225 242 l 328 242 l 344 496 l 225 242 z "},"ä":{"ha":653,"x_min":-114,"x_max":735,"o":"m -114 0 l 285 851 l 596 851 l 538 0 l 311 0 l 317 71 l 146 71 l 113 0 l -114 0 m 225 242 l 328 242 l 344 496 l 225 242 m 228 907 l 282 1106 l 481 1106 l 426 907 l 228 907 m 483 907 l 536 1106 l 735 1106 l 682 907 l 483 907 z "},"å":{"ha":653,"x_min":-114,"x_max":671,"o":"m 275 831 q 275 922 261 865 l 285 958 q 348 1063 301 1021 q 472 1106 394 1106 l 546 1106 q 647 1063 622 1106 q 653 958 671 1021 l 643 922 q 594 831 629 868 l 538 0 l 311 0 l 317 71 l 146 71 l 113 0 l -114 0 l 275 831 m 225 242 l 328 242 l 344 496 l 225 242 m 422 922 q 449 885 413 885 q 477 894 465 885 q 492 913 489 903 l 496 922 l 506 958 q 479 996 515 996 q 451 987 463 996 q 436 968 439 978 l 432 958 l 422 922 z "},"æ":{"ha":856,"x_min":-122,"x_max":928,"o":"m -122 0 l 361 851 l 928 851 l 882 681 l 683 681 l 639 511 l 781 511 l 735 340 l 593 340 l 547 171 l 774 171 l 728 0 l 275 0 l 297 85 l 153 85 l 104 0 l -122 0 m 250 256 l 343 256 l 426 567 l 250 256 z "},"ç":{"ha":590,"x_min":-33,"x_max":651,"o":"m 90 -251 q 23 -224 39 -251 q 18 -154 7 -196 l 117 -154 q 140 -179 110 -179 q 163 -173 154 -179 q 175 -161 172 -167 l 176 -154 q 178 -148 178 -154 q 175 -136 179 -142 q 160 -131 171 -131 q 110 -100 121 -131 q 113 -32 99 -69 l 122 4 q 13 43 51 8 q -30 126 -26 78 q -21 231 -33 175 l 86 628 q 183 788 113 724 q 371 854 254 853 l 458 854 q 614 789 576 854 q 625 628 651 724 l 610 571 l 383 571 l 403 643 q 371 683 410 683 q 338 673 351 683 q 321 653 325 663 l 317 642 l 203 217 q 201 204 203 214 q 207 184 199 194 q 233 174 215 174 q 266 184 253 174 q 283 206 279 194 l 288 215 l 307 286 l 533 286 l 518 231 q 420 68 492 133 q 231 3 349 3 l 219 3 l 217 -8 q 215 -15 217 -10 q 219 -26 214 -21 q 235 -32 224 -32 q 289 -56 271 -32 q 293 -131 307 -79 l 290 -142 q 151 -251 260 -251 l 90 -251 z "},"è":{"ha":508,"x_min":-72,"x_max":582,"o":"m -72 0 l 156 851 l 582 851 l 536 681 l 338 681 l 292 511 l 433 511 l 388 340 l 246 340 l 200 171 l 428 171 l 382 0 l -72 0 m 139 1106 l 394 1106 l 540 908 l 285 908 l 139 1106 z "},"é":{"ha":508,"x_min":-72,"x_max":678,"o":"m -72 0 l 156 851 l 581 851 l 535 681 l 338 681 l 292 511 l 433 511 l 388 340 l 246 340 l 200 171 l 426 171 l 382 0 l -72 0 m 171 907 l 422 1106 l 678 1106 l 426 907 l 171 907 z "},"ê":{"ha":510,"x_min":-72,"x_max":696,"o":"m -72 0 l 156 851 l 582 851 l 536 681 l 338 681 l 292 511 l 433 511 l 388 340 l 246 340 l 200 171 l 428 171 l 382 0 l -72 0 m 72 908 l 324 1106 l 551 1106 l 696 908 l 440 908 l 400 964 l 328 908 l 72 908 z "},"ë":{"ha":508,"x_min":-72,"x_max":664,"o":"m -72 0 l 156 851 l 581 851 l 536 681 l 338 681 l 292 511 l 433 511 l 388 340 l 246 340 l 200 171 l 428 171 l 382 0 l -72 0 m 157 907 l 210 1106 l 408 1106 l 356 907 l 157 907 m 413 907 l 465 1106 l 664 1106 l 611 907 l 413 907 z "},"ì":{"ha":310,"x_min":-72,"x_max":419,"o":"m -72 0 l 156 851 l 382 851 l 154 0 l -72 0 m 18 1106 l 274 1106 l 419 907 l 164 907 l 18 1106 z "},"í":{"ha":310,"x_min":-74,"x_max":656,"o":"m -74 0 l 156 851 l 382 851 l 154 0 l -74 0 m 149 907 l 400 1106 l 656 1106 l 404 907 l 149 907 z "},"î":{"ha":311,"x_min":-72,"x_max":596,"o":"m -72 0 l 156 851 l 382 851 l 154 0 l -72 0 m -28 907 l 224 1106 l 451 1106 l 596 907 l 340 907 l 299 964 l 228 907 l -28 907 z "},"ï":{"ha":310,"x_min":-72,"x_max":564,"o":"m -72 0 l 156 851 l 382 851 l 154 0 l -72 0 m 57 907 l 110 1106 l 308 1106 l 256 907 l 57 907 m 313 907 l 365 1106 l 564 1106 l 511 907 l 313 907 z "},"ñ":{"ha":651,"x_min":-72,"x_max":792,"o":"m -72 0 l 156 851 l 382 851 l 435 624 l 496 851 l 722 851 l 494 0 l 268 0 l 215 226 l 154 0 l -72 0 m 171 907 l 192 983 q 232 1058 199 1019 q 396 1135 297 1135 l 429 1135 q 495 1116 468 1135 q 533 1074 522 1097 q 556 1033 544 1051 q 576 1014 567 1014 q 600 1021 590 1014 q 613 1035 610 1028 l 615 1042 l 632 1106 l 792 1106 l 778 1058 q 738 983 771 1022 q 574 907 669 907 l 540 907 q 474 922 503 907 q 433 953 446 936 q 408 985 421 971 q 386 1000 396 1000 q 363 993 372 1000 q 350 979 353 986 l 347 972 l 329 907 l 171 907 z "},"ò":{"ha":631,"x_min":-49,"x_max":678,"o":"m 144 0 q -11 65 26 0 q -22 226 -49 131 l 85 624 q 183 786 111 721 q 372 851 254 851 l 485 851 q 640 786 603 851 q 651 624 678 721 l 544 226 q 447 65 519 131 q 257 0 375 0 l 144 0 m 181 1106 l 436 1106 l 582 908 l 326 908 l 181 1106 m 204 226 q 203 220 204 224 q 203 207 203 217 q 207 190 204 197 q 220 177 210 183 q 246 171 231 171 q 289 185 271 171 q 313 213 307 199 l 318 226 l 425 624 q 426 630 425 626 q 426 643 426 633 q 423 660 426 653 q 409 674 419 668 q 383 681 399 681 q 340 667 358 681 q 317 639 322 653 l 311 624 l 204 226 z "},"ó":{"ha":631,"x_min":-33,"x_max":814,"o":"m 144 0 q 19 34 64 0 q -29 118 -25 68 q -21 226 -33 168 l 85 624 q 183 786 111 721 q 372 851 254 851 l 486 851 q 641 786 604 851 q 653 624 678 721 l 546 226 q 448 65 519 131 q 258 0 376 0 l 144 0 m 206 226 q 203 211 204 221 q 212 186 201 201 q 247 171 222 171 q 290 185 272 171 q 314 213 308 199 l 319 226 l 425 624 q 426 630 425 626 q 426 643 426 633 q 423 660 426 653 q 409 674 419 668 q 383 681 399 681 q 341 667 358 681 q 318 639 324 653 l 313 624 l 206 226 m 307 908 l 558 1106 l 814 1106 l 563 908 l 307 908 z "},"ô":{"ha":631,"x_min":-49,"x_max":756,"o":"m 144 0 q -11 65 26 0 q -22 226 -49 131 l 85 624 q 183 786 111 721 q 372 851 254 851 l 485 851 q 640 786 603 851 q 651 624 678 721 l 544 226 q 447 65 519 131 q 257 0 375 0 l 144 0 m 132 908 l 383 1107 l 611 1107 l 756 908 l 500 908 l 460 964 l 388 908 l 132 908 m 204 226 q 203 220 204 224 q 203 207 203 217 q 207 190 204 197 q 220 177 210 183 q 246 171 231 171 q 289 185 271 171 q 313 213 307 199 l 318 226 l 425 624 q 426 630 425 626 q 426 643 426 633 q 423 660 426 653 q 409 674 419 668 q 383 681 399 681 q 340 667 358 681 q 317 639 322 653 l 311 624 l 204 226 z "},"õ":{"ha":632,"x_min":-33,"x_max":767,"o":"m 144 0 q 19 34 64 0 q -29 118 -25 68 q -21 226 -33 168 l 85 624 q 183 786 111 721 q 372 851 254 851 l 486 851 q 641 786 604 851 q 653 624 678 721 l 546 226 q 448 65 519 131 q 258 0 376 0 l 144 0 m 175 908 l 196 983 q 236 1060 203 1018 q 393 1135 296 1135 l 424 1135 q 485 1116 460 1135 q 522 1074 511 1097 q 542 1033 532 1051 q 561 1014 553 1014 q 584 1021 575 1014 q 596 1035 593 1028 l 599 1042 l 617 1107 l 767 1107 l 754 1060 q 714 983 747 1022 q 558 908 650 908 l 526 908 q 464 923 490 908 q 426 954 438 938 q 402 985 414 971 q 381 1000 390 1000 q 358 993 368 1000 q 346 979 349 986 l 343 972 l 326 908 l 175 908 m 206 226 q 203 211 204 221 q 212 186 201 201 q 247 171 222 171 q 290 185 272 171 q 314 213 308 199 l 319 226 l 425 624 q 426 630 425 626 q 426 643 426 633 q 423 660 426 653 q 409 674 419 668 q 383 681 399 681 q 341 667 358 681 q 318 639 324 653 l 313 624 l 206 226 z "},"ö":{"ha":632,"x_min":-33,"x_max":725,"o":"m 144 0 q 19 34 64 0 q -29 118 -25 68 q -21 226 -33 168 l 85 624 q 183 786 111 721 q 372 851 254 851 l 486 851 q 641 786 604 851 q 653 624 678 721 l 546 226 q 448 65 519 131 q 258 0 376 0 l 144 0 m 206 226 q 203 211 204 221 q 212 186 201 201 q 247 171 222 171 q 290 185 272 171 q 314 213 308 199 l 319 226 l 425 624 q 426 630 425 626 q 426 643 426 633 q 423 660 426 653 q 409 674 419 668 q 383 681 399 681 q 341 667 358 681 q 318 639 324 653 l 313 624 l 206 226 m 218 908 l 271 1106 l 469 1106 l 417 908 l 218 908 m 474 908 l 526 1106 l 725 1106 l 672 908 l 474 908 z "},"ø":{"ha":664,"x_min":-82,"x_max":746,"o":"m -11 0 l -82 60 l -15 131 q -6 228 -19 174 l 101 625 q 199 786 128 721 q 389 851 271 851 l 503 851 q 636 811 589 851 l 674 853 l 746 792 l 678 721 q 668 625 683 678 l 563 228 q 465 65 536 131 q 275 0 393 0 l 161 0 q 28 40 72 0 l -11 0 m 222 228 q 222 222 222 225 q 221 208 221 218 q 224 191 221 199 q 238 177 228 183 q 264 171 249 171 q 306 185 289 171 q 329 214 324 200 l 335 228 l 385 414 l 228 250 l 222 228 m 278 438 l 436 603 l 442 625 q 442 631 442 628 q 443 644 443 635 q 440 662 443 654 q 426 676 436 669 q 400 682 415 682 q 357 667 375 682 q 333 639 339 653 l 328 625 l 313 568 l 278 438 z "},"ù":{"ha":640,"x_min":-42,"x_max":718,"o":"m 150 0 q -5 65 32 0 q -17 228 -42 131 l 151 851 l 378 851 l 211 226 q 208 211 210 221 q 217 186 207 201 q 253 171 228 171 q 295 185 278 171 q 318 213 313 199 l 324 226 l 492 851 l 718 851 l 551 228 q 453 65 525 131 q 264 0 382 0 l 150 0 m 176 1107 l 432 1107 l 578 908 l 322 908 l 176 1107 z "},"ú":{"ha":640,"x_min":-29,"x_max":828,"o":"m 149 0 q 24 34 68 0 q -25 118 -21 68 q -17 228 -29 168 l 150 851 l 376 851 l 210 226 q 207 211 208 221 q 216 186 206 201 q 251 171 226 171 q 294 185 276 171 q 318 213 313 199 l 324 226 l 490 851 l 717 851 l 550 228 q 452 65 524 131 q 263 0 381 0 l 149 0 m 321 908 l 574 1107 l 828 1107 l 576 908 l 321 908 z "},"û":{"ha":642,"x_min":-43,"x_max":761,"o":"m 150 0 q -6 65 32 0 q -17 228 -43 131 l 151 851 l 378 851 l 210 226 q 207 211 208 221 q 216 186 206 201 q 251 171 226 171 q 294 185 276 171 q 318 213 313 199 l 324 226 l 492 851 l 718 851 l 551 228 q 453 65 525 131 q 263 0 381 0 l 150 0 m 138 908 l 389 1107 l 617 1107 l 761 908 l 506 908 l 465 965 l 393 908 l 138 908 z "},"ü":{"ha":640,"x_min":-29,"x_max":729,"o":"m 149 0 q 24 34 68 0 q -25 118 -21 68 q -17 228 -29 168 l 150 851 l 376 851 l 210 226 q 207 211 208 221 q 216 186 206 201 q 251 171 226 171 q 294 185 276 171 q 318 213 313 199 l 324 226 l 490 851 l 717 851 l 550 228 q 452 65 524 131 q 263 0 381 0 l 149 0 m 222 908 l 275 1107 l 474 1107 l 421 908 l 222 908 m 478 908 l 531 1107 l 729 1107 l 676 908 l 478 908 z "},"ý":{"ha":597,"x_min":71,"x_max":807,"o":"m 71 0 l 176 393 l 100 851 l 326 851 l 360 654 l 497 851 l 724 851 l 403 393 l 297 0 l 71 0 m 300 907 l 551 1106 l 807 1106 l 554 907 l 300 907 z "},"ÿ":{"ha":597,"x_min":71,"x_max":724,"o":"m 71 0 l 176 393 l 100 851 l 326 851 l 360 654 l 497 851 l 724 851 l 403 393 l 297 0 l 71 0 m 200 907 l 253 1106 l 451 1106 l 399 907 l 200 907 m 456 907 l 508 1106 l 707 1106 l 654 907 l 456 907 z "},"ı":{"ha":311,"x_min":-72,"x_max":382,"o":"m -72 0 l 156 851 l 382 851 l 154 0 l -72 0 z "},"Œ":{"ha":839,"x_min":-33,"x_max":911,"o":"m 144 0 q 19 34 64 0 q -29 118 -25 68 q -21 226 -33 168 l 85 624 q 183 786 111 721 q 372 851 254 851 l 911 851 l 865 681 l 668 681 l 622 511 l 764 511 l 718 340 l 576 340 l 531 171 l 757 171 l 713 0 l 144 0 m 206 226 q 205 220 206 224 q 204 207 204 217 q 208 190 204 197 q 222 176 211 182 q 247 169 232 169 q 269 172 258 169 q 286 181 279 175 q 299 192 293 186 q 308 203 304 197 q 314 215 311 210 q 318 222 317 219 l 319 226 l 425 624 q 428 641 428 631 q 419 666 429 651 q 383 681 408 681 q 341 667 358 681 q 318 639 324 653 l 313 624 l 206 226 z "},"œ":{"ha":839,"x_min":-33,"x_max":911,"o":"m 144 0 q 19 34 64 0 q -29 118 -25 68 q -21 226 -33 168 l 85 624 q 183 786 111 721 q 372 851 254 851 l 911 851 l 865 681 l 668 681 l 622 511 l 764 511 l 718 340 l 576 340 l 531 171 l 757 171 l 713 0 l 144 0 m 206 226 q 205 220 206 224 q 204 207 204 217 q 208 190 204 197 q 222 176 211 182 q 247 169 232 169 q 269 172 258 169 q 286 181 279 175 q 299 192 293 186 q 308 203 304 197 q 314 215 311 210 q 318 222 317 219 l 319 226 l 425 624 q 428 641 428 631 q 419 666 429 651 q 383 681 408 681 q 341 667 358 681 q 318 639 324 653 l 313 624 l 206 226 z "},"Š":{"ha":614,"x_min":-54,"x_max":789,"o":"m 139 3 q -17 67 21 3 q -28 229 -54 132 l -12 286 l 214 286 l 199 229 q 198 223 199 226 q 197 210 197 219 q 201 192 197 200 q 215 178 204 185 q 240 172 225 172 q 283 186 265 172 q 307 214 301 200 l 313 229 l 328 286 q 328 292 328 289 q 329 306 329 296 q 326 323 329 315 q 312 337 322 331 q 286 343 301 343 l 229 343 q 104 376 149 343 q 56 460 60 410 q 64 569 51 511 l 79 626 q 176 788 104 722 q 367 853 247 853 l 451 853 q 576 819 532 853 q 626 735 621 786 q 618 626 631 685 l 610 597 l 383 597 l 394 640 q 397 652 396 644 q 390 672 397 660 q 363 683 382 683 q 331 672 344 683 q 314 650 318 661 l 310 640 l 297 597 q 297 591 297 594 q 296 578 296 588 q 299 560 296 568 q 313 547 303 553 q 339 540 324 540 l 396 540 q 551 476 514 540 q 563 314 589 411 l 539 229 q 441 67 513 132 q 251 3 369 3 l 139 3 m 164 1107 l 419 1107 l 461 1050 l 533 1107 l 789 1107 l 536 908 l 310 908 l 164 1107 z "},"š":{"ha":614,"x_min":-54,"x_max":789,"o":"m 139 3 q -17 67 21 3 q -28 229 -54 132 l -12 286 l 214 286 l 199 229 q 198 223 199 226 q 197 210 197 219 q 201 192 197 200 q 215 178 204 185 q 240 172 225 172 q 283 186 265 172 q 307 214 301 200 l 313 229 l 328 286 q 328 292 328 289 q 329 306 329 296 q 326 323 329 315 q 312 337 322 331 q 286 343 301 343 l 229 343 q 104 376 149 343 q 56 460 60 410 q 64 569 51 511 l 79 626 q 176 788 104 722 q 367 853 247 853 l 451 853 q 576 819 532 853 q 626 735 621 786 q 618 626 631 685 l 610 597 l 383 597 l 394 640 q 397 652 396 644 q 390 672 397 660 q 363 683 382 683 q 331 672 344 683 q 314 650 318 661 l 310 640 l 297 597 q 297 591 297 594 q 296 578 296 588 q 299 560 296 568 q 313 547 303 553 q 339 540 324 540 l 396 540 q 551 476 514 540 q 563 314 589 411 l 539 229 q 441 67 513 132 q 251 3 369 3 l 139 3 m 164 1107 l 419 1107 l 461 1050 l 533 1107 l 789 1107 l 536 908 l 310 908 l 164 1107 z "},"Ÿ":{"ha":597,"x_min":71,"x_max":724,"o":"m 71 0 l 176 393 l 100 851 l 326 851 l 360 654 l 497 851 l 724 851 l 403 393 l 297 0 l 71 0 m 200 907 l 253 1106 l 451 1106 l 399 907 l 200 907 m 456 907 l 508 1106 l 707 1106 l 654 907 l 456 907 z "},"ž":{"ha":492,"x_min":-96,"x_max":739,"o":"m -96 0 l -50 171 l 314 681 l 86 681 l 132 851 l 586 851 l 540 681 l 176 171 l 404 171 l 358 0 l -96 0 m 115 1106 l 371 1106 l 413 1050 l 485 1106 l 739 1106 l 488 908 l 261 908 l 115 1106 z "},"–":{"ha":763,"x_min":-8,"x_max":744,"o":"m -8 292 l 38 463 l 744 463 l 699 292 l -8 292 z "},"—":{"ha":964,"x_min":-8,"x_max":944,"o":"m -8 292 l 38 463 l 944 463 l 900 292 l -8 292 z "},"‘":{"ha":285,"x_min":81,"x_max":435,"o":"m 111 731 q 220 913 139 839 q 435 986 301 986 l 411 901 l 383 901 q 367 900 376 901 q 338 884 357 899 q 311 844 318 869 q 315 805 304 819 q 339 789 325 790 l 353 788 l 307 617 l 81 617 l 111 731 z "},"’":{"ha":306,"x_min":78,"x_max":432,"o":"m 78 617 l 100 703 l 129 703 q 146 704 136 703 q 175 720 156 706 q 201 760 194 735 q 197 799 207 785 q 172 814 186 813 l 160 815 l 204 986 l 432 986 l 401 872 q 292 690 372 764 q 78 617 211 617 z "},"‚":{"ha":285,"x_min":-151,"x_max":201,"o":"m -151 -142 l -129 -57 l -101 -57 q -85 -56 -94 -57 q -56 -40 -75 -54 q -29 0 -36 -25 q -33 40 -22 25 q -57 56 -43 54 l -71 57 l -25 226 l 201 226 l 172 114 q 62 -68 143 6 q -151 -142 -19 -142 z "},"“":{"ha":568,"x_min":81,"x_max":718,"o":"m 394 731 q 504 913 424 839 q 718 986 585 986 l 696 901 l 667 901 q 650 900 660 901 q 621 884 640 899 q 594 844 601 869 q 599 805 589 819 q 622 789 610 790 l 636 788 l 592 617 l 364 617 l 394 731 m 81 617 l 111 731 q 220 913 139 839 q 435 986 301 986 l 411 901 l 383 901 q 367 900 376 901 q 338 884 357 899 q 311 844 318 869 q 315 805 304 819 q 339 789 325 790 l 353 788 l 307 617 l 81 617 z "},"”":{"ha":589,"x_min":78,"x_max":715,"o":"m 361 617 l 385 703 l 413 703 q 429 704 419 703 q 458 720 439 706 q 485 760 478 735 q 481 799 492 785 q 457 814 471 813 l 443 815 l 489 986 l 715 986 l 685 872 q 576 690 657 764 q 361 617 494 617 m 78 617 l 100 703 l 129 703 q 146 704 136 703 q 175 720 156 706 q 201 760 194 735 q 197 799 207 785 q 172 814 186 813 l 160 815 l 204 986 l 432 986 l 401 872 q 292 690 372 764 q 78 617 211 617 z "},"„":{"ha":571,"x_min":-137,"x_max":500,"o":"m 146 -94 l 168 -10 l 197 -10 q 213 -8 203 -10 q 242 8 222 -7 q 268 47 261 22 q 265 87 275 72 q 240 103 254 101 l 226 104 l 272 274 l 500 274 l 469 161 q 360 -21 440 53 q 146 -94 279 -94 m -137 -94 l -115 -10 l -86 -10 q -71 -8 -81 -10 q -42 8 -61 -7 q -15 47 -22 22 q -19 87 -8 72 q -43 103 -29 101 l -57 104 l -11 274 l 217 274 l 186 161 q 76 -21 157 53 q -137 -94 -6 -94 z "},"†":{"ha":533,"x_min":-65,"x_max":493,"o":"m 39 0 l 76 142 l -65 142 l -19 313 l 122 313 l 267 850 l 493 850 l 349 313 l 492 313 l 446 142 l 304 142 l 265 0 l 39 0 z "},"•":{"ha":349,"x_min":-11,"x_max":349,"o":"m -11 265 l 65 549 l 349 549 l 272 265 l -11 265 z "},"…":{"ha":856,"x_min":-83,"x_max":771,"o":"m 483 0 l 544 226 l 771 226 l 711 0 l 483 0 m -83 0 l -22 226 l 204 226 l 143 0 l -83 0 m 200 0 l 261 226 l 488 226 l 426 0 l 200 0 z "},"‹":{"ha":413,"x_min":0,"x_max":396,"o":"m 168 142 l 0 372 l 292 603 l 396 463 l 281 372 l 347 282 l 168 142 z "},"›":{"ha":413,"x_min":-12,"x_max":383,"o":"m 92 142 l -12 282 l 103 372 l 36 463 l 215 603 l 383 372 l 92 142 z "},"€":{"ha":653,"x_min":-12,"x_max":704,"o":"m 203 0 q 101 19 142 0 q 45 71 61 39 q 26 144 29 103 q 36 226 22 185 l 44 256 l -12 256 l 26 397 l 82 397 l 97 454 l 40 454 l 79 594 l 136 594 l 143 624 q 240 785 169 721 q 429 851 311 850 l 515 851 q 665 795 625 851 q 689 653 704 739 l 460 653 q 428 681 460 681 q 395 670 408 681 q 378 650 382 660 l 374 639 l 363 594 l 476 594 l 438 454 l 325 454 l 310 397 l 422 397 l 385 256 l 271 256 l 260 214 l 260 211 q 259 206 260 208 q 259 199 258 203 q 260 190 260 194 q 263 183 261 186 q 269 176 265 179 q 278 172 272 174 q 292 169 285 169 q 339 199 322 169 l 567 199 q 467 56 536 113 q 288 0 397 0 l 203 0 z "},"≈":{"ha":606,"x_min":-33,"x_max":629,"o":"m -12 253 q 28 329 -6 290 q 185 404 88 404 l 215 404 q 277 385 251 404 q 313 344 303 367 q 334 302 324 321 q 353 283 344 283 q 376 290 367 283 q 388 304 385 297 l 390 311 l 413 396 l 564 396 l 546 329 q 506 253 539 292 q 350 178 442 178 l 318 178 q 256 192 282 178 q 217 224 229 207 q 194 255 206 240 q 172 269 182 269 q 150 263 160 269 q 138 250 140 256 l 135 243 l 118 178 l -33 178 l -12 253 m 38 439 l 57 515 q 97 590 76 564 q 254 667 158 667 l 286 667 q 360 636 333 667 q 400 576 388 606 q 424 546 413 546 q 446 553 436 546 q 458 567 456 560 l 461 574 l 478 638 l 629 638 l 617 590 q 576 515 597 542 q 419 439 511 439 l 388 439 q 325 453 351 439 q 287 485 299 468 q 263 517 275 503 q 243 532 251 532 q 220 525 229 532 q 208 511 211 518 l 206 504 l 188 439 l 38 439 z "}}}
